<svg enable-background="new 0 0 512 512" height="512" viewBox="0 0 512 512" width="512" xmlns="http://www.w3.org/2000/svg"><path d="m271.111 31.222c-6.362-10.207-22.553-14.4-33.793-12.44-5.95 1.037-9.055 5.04-9.233 11.001-.125 4.168.296 8.487.998 12.746-7.421 1.376-14.631 4.808-19.641 9.128-5.746 4.955-5.141 11.108-1.982 17.366 2.203 4.364 4.801 8.599 7.649 12.643-1.325.45-2.574.942-3.673 1.409-6.439 2.741-13.071 7.136-16.078 13.701-3.338 7.287-.457 14.853 3.288 21.359 1.553 2.699 3.401 5.68 5.521 8.479-3.084.526-6.147 1.661-8.525 2.673-6.439 2.74-13.071 7.135-16.078 13.7-3.338 7.288-.456 14.853 3.288 21.359 1.506 2.617 3.291 5.498 5.331 8.223-3.019.54-6.005 1.65-8.335 2.642-6.439 2.74-13.071 7.136-16.078 13.7-3.338 7.288-.457 14.853 3.288 21.359 2.216 3.851 5.03 8.273 8.383 11.923-4.242-.183-9.004 1.508-12.387 2.948-6.439 2.74-13.071 7.136-16.078 13.7-3.338 7.288-.457 14.853 3.287 21.359 2.129 3.699 4.812 7.924 7.991 11.487-3.864.179-7.979 1.662-10.995 2.946-6.439 2.741-13.071 7.136-16.078 13.701-3.338 7.288-.457 14.853 3.288 21.359 3.619 6.29 8.827 14.113 15.387 17.581 2.476 1.309 5.399-.322 5.488-3.149.003-.078.005-.13.006-.17.097-.46.188-.922.286-1.382.407-1.928.797-3.859 1.196-5.789 1.21-5.856 2.42-11.712 3.63-17.568 1.495-7.237 2.63-14.692 4.376-21.903.27.16.539.324.813.469 2.476 1.309 5.399-.322 5.488-3.149.002-.078.005-.13.006-.171.097-.46.188-.922.285-1.382.407-1.928.797-3.859 1.196-5.789 1.21-5.856 2.42-11.711 3.629-17.567 1.559-7.545 2.734-15.322 4.61-22.817.518.339 1.042.661 1.579.945 2.476 1.309 5.399-.322 5.488-3.149.002-.078.004-.13.006-.171.097-.46.188-.922.285-1.382.408-1.928.797-3.859 1.196-5.789 1.21-5.856 2.42-11.712 3.63-17.568 1.28-6.197 2.296-12.553 3.658-18.779.503.327 1.012.638 1.531.913 2.476 1.309 5.399-.322 5.488-3.149.002-.078.005-.13.006-.171.097-.46.188-.921.285-1.382.407-1.928.797-3.859 1.196-5.789 1.21-5.856 2.42-11.712 3.63-17.568 1.297-6.28 2.326-12.723 3.715-19.028.484.312.974.61 1.475.875 2.476 1.309 5.398-.322 5.488-3.149.003-.078.005-.13.006-.171.097-.46.188-.922.285-1.382.408-1.928.797-3.859 1.196-5.789 1.21-5.856 2.42-11.712 3.63-17.568 1.534-7.423 2.694-15.073 4.518-22.457 2.911-5.931 5.821-11.862 8.732-17.792 3.224-6.569 6.115-13.512 9.667-19.94 2.035-1.374 4.07-2.748 6.105-4.123 5.372-3.628 10.661-7.818 16.294-11.062.093.025.186.053.28.078.638.174 1.242-.553.877-1.138z" fill="#698f64"/><path d="m459.817 150.594c-.032-.427-.067-.854-.103-1.281-.005-.057-.01-.116-.015-.174-.099-1.157-.204-2.314-.31-3.469-1.064-11.636-1.688-23.294-1.727-34.975 0-.009 0-.019 0-.027-.005-1.575.002-3.151.019-4.727.001-.153.004-.304.006-.456.145-11.688 1.464-23.37 1.523-35.048.039-2.634-.03-5.017-.292-7.25-.39-3.323-1.188-6.196-2.481-8.816 0 0-1.508-3.044-3.873-5.659-.295-.326-.63-.641-.996-.947-1.744-1.747-3.816-3.254-6.264-4.445-9.229-4.488-20.459-4.739-30.495-5.36-24.067-1.489-48.119-.805-72.192-1.889-10.638-.479-21.334-.98-31.86-2.688-10.056-1.631-19.813-4.245-30.023-4.975-12.631-.903-26.988-1.361-37.758 6.306-10.718 7.63-15.516 19.05-19.271 31.115-5.92 19.017-11.857 38.028-17.838 57.026-9.804 31.141-19.666 62.264-29.54 93.384-.007.021-.013.043-.02.064l-.021.066c-.453 1.427-2.058 6.486-2.203 6.945-.471 1.49-2.096 6.624-4.836 15.32-8.877 28.141-17.682 56.304-26.526 84.454-2.109 6.713-4.218 13.426-6.327 20.139-.865-1.692-1.759-3.373-2.666-5.049-.195-.36-.392-.718-.589-1.076-.846-1.544-1.71-3.08-2.593-4.606-.044-.076-.088-.154-.132-.23-4.877-8.401-10.329-16.499-16.445-24.037-.715-.886-1.43-1.754-2.144-2.601-.105-.123-.211-.246-.317-.369-.437-.515-.875-1.03-1.31-1.527-.438-.501-.881-.994-1.324-1.486-.059-.066-.117-.133-.177-.198-.896-.994-1.809-1.974-2.736-2.947-.204-.215-.41-.427-.615-.641-.87-.901-1.751-1.799-2.662-2.698-.032-.032-.067-.063-.099-.095-.094-.092-.191-.183-.285-.275-.865-.846-1.751-1.682-2.651-2.514-.241-.222-.481-.445-.723-.666-.903-.821-1.824-1.64-2.775-2.459-.305-.262-.615-.519-.922-.779-.426-.36-.845-.72-1.282-1.082-.23-.19-.47-.367-.702-.555-.293-.238-.577-.486-.873-.721-.379-.302-.772-.587-1.155-.883-.52-.403-1.04-.806-1.568-1.199-.846-.632-1.707-1.247-2.573-1.855-.302-.212-.601-.43-.906-.638-7.42-5.106-15.512-9.352-23.958-12.354-.083-.03-.17-.048-.254-.074-.352-.129-.696-.273-1.049-.399-2.185-.779-4.588-.074-6.036 1.687-1.129 1.074-1.669 2.658-1.107 4.708.019.079.047.155.069.233.044.143.072.279.127.427.015.041.04.08.056.121.047.117.104.23.16.345.97 2.052 3.072 3.813 4.547 5.508.663.788 1.307 1.592 1.952 2.395.38.473.77.937 1.142 1.414.729.932 1.432 1.883 2.136 2.834.276.373.564.738.837 1.114.127.176.247.357.373.533.76 1.061 1.505 2.13 2.232 3.21.594.883 1.177 1.772 1.748 2.668.11.172.223.342.332.513 7.281 11.515 12.798 24.086 16.678 37.148.043.147.086.292.128.439.321 1.091.629 2.186.927 3.284.062.228.125.457.185.684.325 1.219.64 2.44.937 3.666.004.015.008.031.012.046.297 1.226.578 2.456.847 3.688.067.305.13.606.194.908.203.949.397 1.9.583 2.851.061.31.123.622.182.929 2.945 15.551 3.015 30.97 3.068 46.706.035 11.414.108 19.964.22 29.455v.025c.084 7.116-.354 14.507.567 21.629.011.086.023.174.034.261.043.324.089.648.138.97.045.296.094.595.146.898.033.195.068.39.104.585.063.343.131.688.204 1.038.018.087.032.173.051.26.019.085.041.168.06.253.092.415.191.834.298 1.258.019.073.037.145.056.217 1.252 4.865 3.528 10.213 7.641 14.904.183.209.438.499.773.859 0 0 1.874 2.015 4.679 4.188.007.005.013.011.02.016.011.009.023.016.034.025 1.244.961 2.667 1.951 4.192 2.809 1.653.931 3.752 1.696 6.015 2.31 4.202 1.266 8.654 1.808 13.037 1.821.071 0 .145.003.215.003.566.008 2.204.059 3.479-.164.477.059.954.117 1.433.176 1.713 1.16 3.48 2.144 5.255 3.032 2.638 1.315 5.325 2.38 8.023 3.316 5.402 1.858 10.861 3.191 16.339 4.227 1.369.261 2.74.505 4.11.733 1.372.221 2.745.425 4.116.617l2.054.278 1.02.132.506.065c.219.025.503.055.702.071l.568.043.536.036 1.048.064 2.056.112c10.866.538 21.643.844 32.481 1.078l16.262.348c2.71.05 5.418.139 8.129.169l8.131.065 32.513.303 4.064.039 2.037.02 1.02.011.51.006.285.002c.143 0 .286-.004.429-.011 1.142-.056 2.274-.327 3.319-.795l.098-.044.076-.036.148-.071.295-.144c.196-.099.39-.205.584-.309l.575-.335.565-.364c1.492-1.001 2.863-2.315 3.913-3.9.259-.398.504-.807.721-1.231.227-.422.395-.86.579-1.296.096-.216.166-.443.238-.669l.21-.681c.116-.46.216-.927.3-1.394.297-1.878.177-3.771-.22-5.499-.398-1.734-1.049-3.319-1.821-4.766-.778-1.445-1.675-2.766-2.648-3.978-.24-.308-.493-.594-.741-.891-.128-.148-.242-.294-.381-.443l-.414-.444-.416-.443c-.142-.144-.29-.282-.435-.423-.293-.279-.582-.564-.892-.822-1.217-1.064-2.526-2.012-3.901-2.827-.533-.315-1.077-.606-1.626-.885 6.311-12.064 15.628-32.047 20.864-54.779.423-1.835 4.379-19.453 3.714-35.074-.213-5.01-.791-10.311-1.866-15.94-1.668-8.739-3.187-12.33-5.946-18.85-1.741-4.116-3.909-9.239-7.025-17.784-5.925-16.251-13.299-36.475-13.318-60.46-.008-10.746 1.013-19.595 3.369-28.874 17.476-2.29 34.821-5.335 51.971-9.117 2.074.399 4.151.705 6.225.906.362.035.727.068 1.092.098 12.895 1.538 26.14.577 38.995-2.335 6.991-1.491 14.445-3.726 22.117-7.036 7.105-2.932 13.919-6.421 20.302-10.352.669-.407 1.34-.824 2.013-1.255.033-.021.067-.041.099-.062.266-.17.528-.346.792-.518.256-.167.512-.332.767-.503.216-.144.428-.291.642-.437.352-.239.704-.476 1.056-.722 0 0 .001 0 .001-.001 4.092-2.858 8.158-6.191 11.887-10.085.037-.039.075-.079.112-.118.406-.426.809-.858 1.206-1.297.072-.08.142-.16.213-.24.368-.411.734-.825 1.093-1.248.105-.124.207-.25.312-.375.327-.391.655-.783.975-1.184.412-.516.815-1.039 1.21-1.569.139-.186.272-.378.408-.566.289-.396.576-.794.855-1.198.147-.213.29-.432.435-.648.179-.267.363-.531.538-.802.074-.113.142-.231.215-.345.171-.267.337-.539.504-.81.271-.439.537-.881.798-1.328.07-.121.139-.243.209-.365 2.184-3.81 3.974-7.905 5.093-12.137.147-.541.279-1.073.397-1.596.007-.033.017-.065.024-.098.004-.016.005-.032.008-.048.961-4.378.925-8.255.527-13.389z" fill="#86b57e"/><path d="m305.474 104.445c-.571-.869-1.657-1.421-2.703-1.1-2.373.73-3.086 2.877-4.534 4.703-1.569 1.978-3.47 3.688-5.615 5.016-4.767 2.952-10.421 4.321-15.99 4.506-6.136.204-12.473-1.048-17.792-4.194-4.607-2.725-8.256-6.972-12.137-10.601-.413-.387-1.04-.098-1.075.445-.445 6.826 4.034 11.933 9.36 15.734 6.264 4.469 14.025 6.293 21.644 6.048 6.831-.22 13.89-1.888 19.74-5.521 3.884-2.411 12.612-9.696 9.102-15.036z" fill="#698f64"/><path d="m292.378 59.281c14.412 8.51 19.815 29.336 11.359 43.78s-29.262 19.925-43.737 11.522c-14.475-8.402-20.034-29.187-11.686-43.694s29.112-20.143 43.649-11.849z" fill="#fff"/><path d="m219.457 132.735c.025-.113.046-.227.07-.339.009-.201.004.008-.07.339z"/><path d="m203.732 178.608c.008-.202.004.007-.07.339.025-.113.046-.226.07-.339z"/><path d="m171.143 274.462c.009-.201.004.008-.07.339.025-.112.046-.226.07-.339z"/><path d="m227.944 300.816c-.257.226-.065.757.296.715 9.836-1.149 21.335 2.053 27.28 10.581 3.612 5.181 4.649 11.688 4.512 17.878-.121 5.472-.642 13.195-4.18 17.633-1.641 2.058-4.754 3.985-7.52 2.993-3.118-1.119-3.342-4.673-3.309-7.481.066-5.732.716-10.895-2.589-15.908-5.141-7.799-16.574-12.433-25.307-8.439-3.748 1.714-1.587 7.146 1.973 7.283 6.162.238 13.613.585 16.729 7.036 1.757 3.636.447 7.954.656 11.833.174 3.221 1.002 6.389 2.901 9.035 3.549 4.947 9.922 6.207 15.484 4.238 6.767-2.397 10.183-8.647 11.639-15.298 2.82-12.877 2.38-28.175-7.526-38.062-7.718-7.704-21.972-11.989-31.039-4.037z"/><path d="m417.393 68.688c-.791 1.786-1.253 3.743-1.321 5.771-.087 2.614.487 5.155 1.592 7.402 2.067 4.202 7.986 2.701 8.19-2.045.038-.877.061-1.775.069-2.694.019-2.4-.074-4.673-.244-6.807-.381-4.763-6.374-5.944-8.286-1.627z"/><path d="m459.388 145.67c-1.217-13.304-1.858-26.637-1.707-39.999.138-12.204 1.587-24.401 1.542-36.593-.039-10.684-3.857-20.862-13.921-25.757-9.229-4.488-20.459-4.739-30.495-5.36-24.067-1.488-48.119-.806-72.192-1.889-10.638-.478-21.334-.98-31.86-2.687-10.056-1.632-19.813-4.245-30.023-4.975-3.953-.283-8.075-.522-12.203-.482-7.461-7.796-21.27-10.88-31.211-9.146-5.95 1.038-9.055 5.04-9.233 11.001-.125 4.168.296 8.488.998 12.747-7.421 1.377-14.631 4.808-19.641 9.129-5.746 4.955-5.141 11.107-1.982 17.365 2.203 4.364 4.801 8.599 7.649 12.643-1.325.45-2.574.942-3.673 1.41-6.439 2.74-13.071 7.135-16.078 13.7-3.338 7.288-.457 14.853 3.288 21.359 1.553 2.699 3.401 5.68 5.521 8.479-3.084.525-6.147 1.661-8.525 2.673-6.439 2.74-13.071 7.135-16.078 13.7-3.338 7.288-.456 14.853 3.288 21.36 1.506 2.617 3.291 5.498 5.331 8.222-3.019.539-6.005 1.65-8.335 2.642-6.439 2.74-13.071 7.135-16.078 13.7-3.338 7.288-.457 14.853 3.288 21.36 2.052 3.566 4.616 7.624 7.647 11.103-.085.269-.17.538-.255.808-3.978.089-8.274 1.632-11.395 2.959-6.439 2.741-13.071 7.136-16.078 13.701-3.338 7.288-.457 14.852 3.287 21.359 2.129 3.699 4.812 7.924 7.991 11.487-3.864.179-7.979 1.662-10.995 2.946-6.439 2.74-13.071 7.135-16.078 13.7-3.338 7.288-.457 14.853 3.288 21.359 2.271 3.945 5.167 8.495 8.63 12.193-.126.401-.252.802-.377 1.203-2.109 6.712-4.218 13.426-6.327 20.139-10.92-21.36-25.129-41.569-44.022-56.611-9.006-7.17-19.297-13.07-30.159-16.931-4.343-1.543-10.375.908-8.251 6.582.878 2.346 3.372 4.301 4.956 6.191 2.047 2.442 4.006 4.959 5.875 7.541 12.902 17.82 21.159 38.682 25.297 60.223 3.158 16.438 3.076 32.724 3.137 49.391.033 9.045.106 18.092.212 27.138.1 8.463-.546 17.317 1.244 25.641 1.876 8.722 6.477 16.254 13.527 21.695 6.613 5.103 15.127 6.957 23.382 6.966.537.001 3.141.117 4.453-.386 1.888 1.339 3.851 2.442 5.823 3.43 2.636 1.321 5.328 2.369 8.024 3.312 2.696.944 5.417 1.722 8.14 2.419 2.722.704 5.457 1.293 8.198 1.799 2.739.512 5.483.962 8.224 1.352 1.373.18 2.734.414 4.09.516l4.1.189c5.466.249 10.93.521 16.401.689 5.457.2 10.957.383 16.377.499 21.675.722 43.371.316 65.04.808l4.064.084 2.032.043 1.016.021.508.01.275.005.429-.011c1.143-.055 2.276-.323 3.321-.79.853-.389 1.587-.796 2.346-1.304 1.492-.999 2.867-2.309 3.922-3.891 1.052-1.591 1.751-3.387 2.061-5.268.298-1.881.178-3.774-.22-5.503-.82-3.475-2.534-6.323-4.458-8.753-.946-1.181-2.062-2.404-3.282-3.463-1.218-1.063-2.525-2.013-3.9-2.829-.538-.323-1.088-.617-1.644-.897 6.311-12.064 15.628-32.045 20.864-54.777.423-1.835 4.379-19.453 3.714-35.074-.213-5.009-.791-10.311-1.866-15.94-1.668-8.738-3.187-12.329-5.946-18.849-1.741-4.117-3.909-9.239-7.025-17.784-5.926-16.251-13.299-36.475-13.318-60.46-.008-10.746 1.013-19.595 3.369-28.873 17.597-2.305 35.06-5.379 52.326-9.198 30.83 5.959 64.521-3.312 90.489-19.954 8.79-5.635 16.799-12.695 22.503-21.511 3.278-5.067 5.942-10.766 7.238-16.68 1.327-6.072.666-12.244.106-18.366zm-223.517-117.694c1.247-2.336 5.544-2.037 7.696-2.036 5.352.002 10.205 1.245 15.012 2.762-5.587.895-10.933 2.688-15.604 6.013-2.434 1.733-4.549 3.67-6.43 5.756-.236-1.66-.445-3.325-.582-5.004-.141-1.73-.992-5.806-.092-7.491zm-22.898 35.02c-1.376-3.925 1.659-6.038 4.611-7.939 3.909-2.519 8.249-4.381 12.725-5.67-2.785 5.111-4.818 10.701-6.605 16.443-1.058 3.399-2.121 6.797-3.181 10.196-1.074-1.586-2.126-3.188-3.119-4.836-1.553-2.581-3.43-5.336-4.431-8.194zm-10.324 36.851c2.155-5.139 8.099-8.779 12.955-10.994.343-.156.697-.3 1.056-.438-2.995 9.589-5.999 19.176-9.012 28.76-3.22-4.829-7.46-11.458-4.999-17.328zm-15.795 46.212c2.155-5.14 8.099-8.78 12.955-10.994.793-.362 1.635-.67 2.502-.952-3.202 10.155-6.405 20.309-9.617 30.461-.231-.318-.47-.63-.69-.959-3.235-4.846-7.649-11.595-5.15-17.556zm-15.795 45.925c2.155-5.14 8.099-8.78 12.955-10.994 1.22-.557 2.555-.988 3.925-1.39-3.386 10.691-6.774 21.382-10.165 32.071-.543-.69-1.071-1.393-1.563-2.13-3.237-4.848-7.652-11.596-5.152-17.557zm-16.794 49.929c2.155-5.139 8.099-8.779 12.955-10.994 1.538-.701 3.259-1.205 5.003-1.702-3.509 11.098-7.007 22.2-10.496 33.304-.813-.977-1.596-1.982-2.311-3.052-3.236-4.845-7.651-11.594-5.151-17.556zm-10.644 67.049c-3.236-4.846-7.65-11.595-5.151-17.556 2.155-5.139 8.099-8.779 12.955-10.994 1.608-.734 3.414-1.25 5.24-1.77-3.514 11.202-7.028 22.404-10.544 33.606-.882-1.049-1.729-2.132-2.5-3.286zm305.228-148.497c-.97 5.722-3.952 9.896-7.573 14.266-11.748 14.179-27.273 25.759-44.145 33.081-16.135 7.003-33.397 9.451-50.357 7.43-.585-.373-1.297-.554-2.036-.442-.208.032-.417.059-.625.091-8.104-1.191-16.121-3.405-23.896-6.635-22.748-9.451-44.316-22.77-61.872-40.114-.165-.163-2.754-2.9-2.946-2.693-1.377 1.482 17.785 19.073 19.065 20.227 13.773 12.403 29.179 23.669 46.307 30.962.837.356 1.681.686 2.526 1.015-13.742 1.584-27.52 2.701-41.304 3.33l-.03.001c-.137.006-.276.019-.414.036-2.729.339-4.735 2.637-4.787 5.309-2.996 10.951-4.338 21.49-4.329 33.927.019 25.909 7.759 47.136 13.978 64.192 3.21 8.806 5.532 14.292 7.228 18.299 2.627 6.209 3.827 9.043 5.277 16.642 1.031 5.401 1.582 10.439 1.741 15.317.454 13.88-3.061 29.321-3.533 31.328-5.136 21.832-13.793 42.854-18.837 54.243-2.534-.485-5.06-.698-7.558-.696 1.447-3.769 2.532-7.685 3.238-11.66.298-1.713.493-3.403.657-5.161.143-1.773.191-3.492.184-5.216-.049-3.438-.342-6.852-.892-10.233-1.105-6.743-3.222-13.378-6.464-19.469-1.618-3.043-3.528-5.928-5.662-8.621-2.126-2.696-4.493-5.194-7.114-7.426-5.204-4.498-11.278-7.908-17.542-10.143-6.259-2.294-12.607-3.721-18.853-5.052-12.708-2.799-25.821-3.343-38.508-1.698 12.796.195 25.398 2.251 37.342 6.077 6.078 1.948 12.093 3.839 17.643 6.415 2.766 1.298 5.432 2.723 7.904 4.39 2.475 1.662 4.766 3.541 6.861 5.614 4.19 4.145 7.659 9.053 10.12 14.374 2.525 5.305 4.066 11.064 4.854 16.933.395 2.929.559 5.897.525 8.839-.014 1.466-.078 2.939-.213 4.345-.155 1.415-.343 2.895-.616 4.322-.499 2.879-1.232 5.712-2.184 8.475-.975 2.754-2.138 5.446-3.486 8.056l-.111.216c-.495.959-.67 2.092-.42 3.229.571 2.586 3.13 4.221 5.717 3.65l.025-.006c4.828-1.162 9.777-1.553 14.308-.771 4.646.831 8.638 2.837 11.512 6.335 1.478 1.746 2.633 3.65 3.072 5.456.46 1.796.212 3.401-.651 4.794-.436.677-1.031 1.293-1.776 1.809-.36.249-.815.497-1.19.672-.188.086-.393.136-.6.148l-7.896-.129c-10.79-.212-21.578-.509-32.361-.907l-8.086-.327c-2.694-.126-5.386-.351-8.079-.521l-16.153-1.092c-10.724-.759-21.35-1.445-32.036-1.969l-4.002-.208c-1.34-.086-2.654-.285-3.963-.436-2.618-.328-5.219-.71-7.803-1.149-5.161-.898-10.278-1.934-15.184-3.37-4.872-1.435-9.66-3.243-13.381-5.815-.946-.628-1.736-1.337-2.481-2.052-.663-.743-1.317-1.482-1.712-2.281-.854-1.476-1.179-3.599-1.004-5.763.04-.512.126-1.127.197-1.42.133-.561.266-1.031.463-1.52.372-.971.893-1.913 1.549-2.801 1.316-1.776 3.161-3.318 5.249-4.619 4.227-2.577 9.35-4.087 14.594-5.013l.006-.001c.452-.08.806-.462.833-.94.031-.558-.395-1.035-.953-1.066-2.766-.154-5.569-.068-8.376.324-2.809.371-5.624 1.078-8.355 2.218-2.732 1.125-5.402 2.744-7.642 5.057-1.117 1.151-2.117 2.473-2.92 3.936-.407.72-.76 1.517-1.037 2.243-.37.986-.519 1.71-.692 2.531-.315 1.599-.451 3.24-.367 4.945.056.855.158 1.718.352 2.59.081.435.24.873.364 1.31.135.436.261.881.457 1.281l.554 1.232c.204.393.435.762.658 1.143.43.786.975 1.418 1.486 2.116.735.86 1.507 1.672 2.309 2.414-.258-.052-.463-.093-.571-.122-6.825-1.815-13.708-3.977-19.095-8.768-6.485-5.768-7.504-13.221-8.315-21.428-1.123-11.363-.786-22.552-.798-33.942-.017-16.745.663-33.693-1.122-50.37-2.16-20.177-7.532-40.12-16.486-58.361-2.654-5.406-5.623-10.659-8.908-15.706 12.707 8.169 23.366 19.304 32.279 31.424 4.706 6.399 8.965 13.119 12.84 20.051 3.509 6.278 5.957 13.422 9.703 19.502 1.358 2.205 3.62 3.562 6.238 2.907 4.263-1.068 4.755-6.45 5.843-9.909 2.716-8.642 5.426-17.286 8.138-25.929.552-1.761 1.105-3.522 1.658-5.283.043-.136.086-.272.128-.408 1.213-3.866 2.427-7.732 3.64-11.599 3.361-10.712 6.732-21.422 10.096-32.133.561-1.784 1.123-3.568 1.684-5.352.067-.213.134-.426.201-.638 1.422-4.526 2.847-9.053 4.271-13.578 2.595-8.25 5.181-16.501 7.784-24.748.582-1.845 1.17-3.688 1.753-5.533.573-1.811 1.148-3.622 1.722-5.433.171-.541.343-1.082.514-1.623 2.313-7.304 4.624-14.609 6.943-21.911 1.824-5.744 3.642-11.488 5.464-17.233.545-1.719 1.09-3.438 1.635-5.156.285-.899.571-1.799.856-2.698 1.006-3.175 2.016-6.348 3.019-9.523 1.272-2.069 1.726-4.925 2.447-7.205.718-2.276 1.986-4.881 2.134-7.299.713-2.262 1.429-4.522 2.143-6.783.852-2.694 1.702-5.387 2.554-8.081.488-1.541.974-3.081 1.461-4.623.39-1.235.78-2.47 1.171-3.704 4.393-13.897 8.773-27.798 13.081-41.722.016-.033.032-.066.048-.099.026-.107.056-.214.082-.321.168-.545.339-1.089.508-1.633.031-.102.062-.206.093-.308.071-.095.108-.214.102-.336 1.859-6.113 3.591-13.045 6.032-19.559 1.566-4.177 3.427-8.175 5.801-11.671 1.12-1.65 2.357-3.184 3.729-4.574.78-.79 1.606-1.531 2.48-2.22 3.009-2.372 6.602-4.098 10.945-4.931.35-.067.693-.142 1.053-.198 9.118-1.398 18.585.649 27.665 1.67 12.238 1.376 24.484 2.687 36.744 3.86 11.376 1.087 22.842 2.344 34.273 2.648 6.278.167 12.586-.234 18.87-.19 14.447.103 28.943.725 43.342 1.909 7.267.599 17.661.709 23.225 6.296 6.817 6.845 4.019 19.603 3.506 28.095-.828 13.709-1.104 27.42-.571 41.148.25 6.435.682 12.858 1.252 19.273.481 5.339 1.473 10.969.568 16.308z"/><path d="m294.927 59.708c.188-.944-.128-1.997-1.206-2.724-.626-.423-1.27-.809-1.924-1.173-1.922-1.069-3.957-1.889-6.062-2.475-10.586-2.948-22.933-.022-31.489 6.513-.59.451-1.154.922-1.703 1.404.002-.058.005-.117.006-.175.003-.068-.107-.068-.105 0 .003.083.007.168.01.252-5.381 4.763-8.812 11.031-10.22 17.792-.418 2.009-.658 4.06-.717 6.129-.121 4.223.506 8.516 1.908 12.651 4.775 14.088 17.416 23.744 32.468 23.419 14.121-.305 27.775-8.728 32.538-22.328 5.046-14.408-.376-31.525-13.504-39.285zm9.915 32.884c-2.21 12.398-12.752 21.087-24.954 22.861-12.293 1.788-23.836-4.168-29.313-15.334-2.7-5.506-3.728-11.78-2.933-17.758.296-2.224.844-4.405 1.653-6.491 1.296-3.345 3.258-6.445 5.927-9.07 6.397-6.29 15.172-9.097 23.804-8.47.495.035.991.08 1.485.139 1.658.197 3.306.521 4.925.972.523.145 1.042.309 1.559.482 1.376.459 2.728 1.007 4.041 1.655 1.033.51 1.989.368 2.705-.107 8.417 7.479 13.071 20.068 11.101 31.121z"/><path d="m284.589 76.436c-.088.015-.173.04-.26.057-4.917.987-8.249 5.413-8.423 9.866-.253 6.481 6.204 12.288 12.404 11.164 5.759-1.044 9.441-7.732 8.152-13.372-.148-.649-.347-1.29-.632-1.901-1.813-3.885-6.411-6.653-11.241-5.814z"/><ellipse cx="244.408" cy="137.878" fill="#c27d9c" rx="14.654" ry="9.03"/></svg>