<svg enable-background="new 0 0 2000 2000" height="512" viewBox="0 0 2000 2000" width="512" xmlns="http://www.w3.org/2000/svg"><path d="m1319.576 1499.946c-25.645-55.975-77.58-95.192-133.319-118.16-55.977-23.067-129.936-37.031-188.3-14.972-4.856 1.835-8.373 5.205-10.566 9.188-60.816 4.307-124.462 46.807-160.665 91.889-80.745 100.547-47.847 245.396 46.824 324.61 93.515 78.247 222.927 75.636 324.073 12.87 99.103-61.497 174.523-190.681 121.953-305.425z" fill="#70aeff"/><path d="m1740.266 1287.951c52.967-201.834 43.156-421.265-48.842-610.55-90.892-187.01-260.384-319.325-461.986-368-118.289-28.56-240.289-29.697-359.072-3.725-196.423 42.947-368.18 162.698-465.129 340.39-99.728 182.785-116.76 408.429-61.792 607.737 7.492 27.167 16.504 53.583 27.136 79.679.646 1.586 1.584 2.817 2.668 3.789-10.186 1.683-19.3 10.078-27.322 16.439-14.428 11.441-27.438 24.988-38.933 39.354-21.222 26.522-36.899 57.966-46.507 90.503-18.778 63.591-12.007 136.096 25.769 191.679 74.858 110.146 247.513 129.127 358.267 71.226 45.452-23.762 101.7-71.498 131.849-142.085 9.03-21.141 13.847-39.949 16.571-53.611 41.49 9.62 87.455 17.507 137.439 21.932 157.011 13.901 290.392-11.954 385.511-40.452 3.276 10.237 8.492 24.055 16.861 39.389 0 0 16.914 28.57 43.897 56.78 38.257 39.997 88.874 71.842 143.31 83.773 134.188 29.411 327.996-31.823 331.379-193.862 1.897-90.911-54.629-164.672-111.074-230.385z" fill="#70aeff"/><path d="m1740.266 1287.951c52.967-201.834 43.156-421.265-48.842-610.55-90.892-187.01-260.384-319.325-461.986-368-118.289-28.56-240.289-29.697-359.072-3.725-196.423 42.947-368.18 162.698-465.129 340.39-99.728 182.785-116.76 408.429-61.792 607.737 7.492 27.167 16.504 53.583 27.136 79.679.311.764.69 1.445 1.12 2.055 0 0 .669.948 1.548 1.734 102.158 91.325 208.224 134.355 208.225 134.355 87.704 35.58 175.368 71.145 302.608 87.436 266.274 34.092 479.382-45.219 572.789-86.964 72.845-32.556 176.413-88.531 283.395-184.147z" fill="#8abdff"/><ellipse cx="1502.188" cy="932.378" fill="#ffb0c3" rx="69.423" ry="40.947"/><ellipse cx="596.02" cy="932.378" fill="#ffb0c3" rx="69.423" ry="40.947"/><g fill="#64a7ff"><path d="m885.841 398.926c-18.419-2.115-37.537 3.597-54.75 9.927-14.996 5.515-29.52 10.845-39.213 23.915-4.114 5.546-.882 14.329 4.59 17.504 14.298 8.297 31.951 6.516 47.915 5.066 18.54-1.684 36.781-4.115 53.049-13.619 21.283-12.435 9.735-40.344-11.591-42.793z"/><path d="m1153.987 421.031c-23.62-1.9-43.996.318-66.822 5.099-16.593 3.475-12.774 24.81 0 29.96 21.555 8.691 108.164 39.007 108.561-7.317.196-22.887-24.468-26.352-41.739-27.742z"/><path d="m1057.045 360.625c-13.027-3.97-28.965-3.486-42.556-3.107-11.742.327-26.457 1.483-36.537 7.782-4.086 2.554-5.712 9.142-1.628 12.63 9.463 8.082 23.749 11.825 35.882 13.625 14.786 2.193 30.034 5.051 44.838 2.908 18.206-2.637 15.098-29.237.001-33.838z"/><path d="m1367.715 434.15c-5.286-12.685-15.986-14.793-28.407-18.06-5.725-1.506-11.728-3.774-17.656-4.088-6.564-.348-12.806.302-19.423-.566-9.363-1.228-12.932 13.761-4.797 17.71 5.464 2.652 10.061 5.99 15.179 9.167 5.072 3.149 10.995 4.686 16.652 6.587 10.651 3.579 22.823 9.341 33.161 2.252 3.788-2.596 7.309-8.16 5.291-13.002z"/><path d="m1452.364 500.117c-6.399-11.172-23.354-21.149-36.381-16.194-6.71 2.552-9.409 10.351-4.207 15.934 2.833 3.041 6.57 4.905 9.738 7.541 3.413 2.84 6.517 6.003 9.87 8.907 11.127 9.636 28.846-2.455 20.98-16.188z"/><path d="m1208.136 382.344c-11.693-22.511-41.064-11.286-56.554-1.992-3.189 1.913-2.445 8.298 1.004 9.21 8.933 2.361 17.612 5.8 26.658 8.002 8.863 2.157 17.676 5.05 25.811-1.132 3.834-2.914 5.61-9.218 3.081-14.088z"/><path d="m706.432 459.698c-10.247-4.931-22.083.358-31.938 4.337-11.58 4.676-26.074 8.149-34.204 18.176-4.947 6.101-1.797 14.743 6.333 15.288 12.997.872 25.271-7.246 36.662-12.614 9.469-4.463 21.81-9.664 25.08-20.44.501-1.655-.307-3.965-1.933-4.747z"/><path d="m1542.607 580.592c-2.192-4.696-6.692-8.01-10.159-11.757-3.497-3.78-7.132-6.612-11.225-9.714-4.996-3.786-11.755 2.457-10.202 7.843.632 2.192 1.25 4.41 2.052 6.548 1.123 2.996 3.136 5.4 5.068 7.911 3.33 4.328 6.715 9.502 11.862 11.773 8.537 3.765 16.665-3.904 12.604-12.604z"/></g><path d="m306.994 1393.064c-21.222 26.522-36.899 57.966-46.507 90.503-18.778 63.591-12.007 136.096 25.77 191.679 75.734 111.435 244.411 129.25 358.267 71.226 54.734-27.894 112.509-80.702 136.585-141.663 1.742 70.361 36.183 140.616 92.444 187.691 93.515 78.247 222.927 75.636 324.074 12.87 76.949-47.75 139.581-136.312 139.144-227.234 11.441 18.001 25.24 34.983 39.881 50.289 38.257 39.997 88.874 71.842 143.31 83.773 134.188 29.411 327.996-31.824 331.379-193.862 1.898-90.912-54.628-164.673-111.074-230.386 52.967-201.834 43.156-421.265-48.842-610.55-90.892-187.01-260.384-319.325-461.986-368-118.289-28.56-240.289-29.697-359.072-3.725-196.423 42.947-368.18 162.698-465.129 340.39-99.728 182.785-116.76 408.429-61.792 607.737 7.493 27.167 16.504 53.583 27.136 79.679.646 1.586 1.584 2.817 2.668 3.789-10.186 1.683-19.3 10.078-27.322 16.439-14.429 11.442-27.438 24.989-38.934 39.355zm875.628 366.925c-74.277 51.008-175.846 65.326-254.786 16.75-72.666-44.715-116.846-130.947-101.445-212.216 7.67 1.451 15.349 2.849 23.049 4.13 146.428 24.347 295.53 17.834 438.065-17.768 15.38 78.716-38.643 163.614-104.883 209.104zm-799.144-420.863c3.813-1.432 6.544-5.152 5.02-10.583-37.479-133.632-56.799-272.107-35.892-410.376 18.984-125.549 68.646-248.662 149.994-346.966 130.84-158.11 337.154-241.079 540.41-239.668 227.276 1.578 448.269 107.047 570.275 302.719 68.086 109.196 103.577 236.294 109.845 364.39 3.342 68.299-1.15 137.006-13.564 204.251-3.106 16.823-6.666 33.559-10.669 50.191-3.772 15.672-14.91 37.915-6.514 53.268 8.003 14.634 23.687 27.798 34.318 40.687 12.186 14.774 23.797 29.981 34.274 46.023 37.703 57.722 62.411 137.189 17.341 198.225-41.726 56.507-119.108 80.34-186.683 80.018-95.156-.453-170.587-51.853-220.941-130.649-2.446-3.828-4.945-7.713-7.361-11.652 44.987-14.785 89.129-32.528 132.104-53.22 37.75-18.176 74.472-38.506 109.877-60.912 25.595-16.197 51.42-32.023 71.16-55.274 12.133-14.291-2.756-33.03-19.564-25.356-22.024 10.057-40.673 23.961-60.853 37.215-29.235 19.201-59.424 36.95-90.382 53.227-59.463 31.263-121.677 56.497-185.766 76.047-15.059 4.593-30.218 8.882-45.473 12.848-10.063 2.616-20.159 5.117-30.3 7.463-134.381 31.08-273.333 34.04-408.368 11.39-13.839-2.321-27.635-4.912-41.382-7.769-62.165-12.922-123.309-31.254-182.569-54.848-63.645-25.34-127.273-53.86-187.868-85.801-.726-.382-1.62.618-.923 1.196 46.012 38.119 94.543 70.939 148.71 96.57 61.915 29.297 126.729 52.46 193.151 69.19-17.471 26.278-30.817 55.19-49.8 80.669-18.826 25.27-42.426 47.475-68.886 64.572-48.609 31.407-104.464 44.702-161.979 41.539-56.195-3.09-114.06-22.334-153.159-64.335-40.629-43.646-52.962-106.196-42.888-163.807 5.8-33.17 18.68-64.189 36.795-92.479 10.391-16.229 21.99-30.989 35.077-45.123 8.933-9.646 22.664-18.898 23.433-32.88z"/><path d="m1045.426 1043.604c79.653 4.002 159.358-56.609 175.95-134.763 1.55-7.301.407-16.028-5.612-21.233-13.246-11.455-29.849-6.605-36.475 9.63-6.632 16.25-10.897 31.467-21.229 46.124-20.107 28.525-51.723 49.439-85.897 56.474-74.102 15.255-137.686-42.49-171.774-101.837-.404-.704-1.348-.326-1.419.384-8.05 80.535 72.569 141.509 146.456 145.221z"/><path d="m695.176 864.947c8.571 1.081 24.433 2.635 40.305-3.556 37.393-14.586 57.918-55.497 40.067-93.024-17.835-37.493-66.015-57.565-103.574-36.935-42.755 23.484-49.066 85.156-26.285 112.02 14.483 17.08 41.172 20.446 49.487 21.495z"/><path d="m1436.894 852.521c35.343-27.206 34.724-85.823.228-113.439-17.224-13.789-40.349-17.687-61.658-12.992-29.347 6.466-40.372 34.481-43.379 41.204-2.29 5.12-14.165 31.675-3.057 56.402 15.636 34.81 72.475 56.067 107.866 28.825z"/></svg>