<svg enable-background="new 0 0 512 512" height="512" viewBox="0 0 512 512" width="512" xmlns="http://www.w3.org/2000/svg"><path d="m254.045 468.021v-72.66c0-15.872-12.912-28.784-28.784-28.784s-28.784 12.912-28.784 28.784v72.662c-.085 3.925.614 7.758 2.08 11.397 1.42 3.524 3.49 6.698 6.153 9.435 2.648 2.721 5.742 4.866 9.196 6.375 3.613 1.578 7.436 2.378 11.363 2.378.144 0 .29-.001.434-.003 3.888-.059 7.663-.901 11.22-2.502 3.403-1.531 6.447-3.684 9.047-6.399 2.617-2.733 4.65-5.893 6.042-9.394 1.435-3.609 2.119-7.406 2.033-11.289z" fill="#fc9"/><path d="m374.149 355.346c-.728-3.67-2.14-7.125-4.197-10.269s-4.658-5.821-7.729-7.958c-3.197-2.223-6.754-3.755-10.575-4.553l-.168-.035c-1.951-.408-3.939-.614-5.917-.614h-.001c-6.555 0-12.999 2.272-18.146 6.397-5.234 4.195-8.869 10.109-10.237 16.654l-22.271 106.585c-.008.04-.016.08-.024.119-.663 3.355-.822 6.759-.474 10.119.34 3.277 1.153 6.438 2.418 9.396 2.701 6.316 7.321 11.311 13.009 14.065 3.47 1.68 7.281 2.533 11.328 2.533 6.375 0 12.861-2.185 18.263-6.153 5.779-4.244 9.973-10.188 12.13-17.19.101-.329.187-.662.258-.999l22.271-106.585c.799-3.819.819-7.693.062-11.512z" fill="#f1d88c"/><path d="m451.207 276.344c-.579-1.724-1.984-3.043-3.742-3.511-10.792-2.874-22.301.244-30.037 8.137-7.805 7.964-10.467 19.42-6.948 29.897.579 1.724 1.984 3.043 3.742 3.511 2.655.707 5.352 1.051 8.027 1.051 8.199 0 16.177-3.237 22.01-9.188 7.805-7.963 10.467-19.419 6.948-29.897z" fill="#f2b170"/><path d="m402.754 351.642c-.167-7.274-1.776-14.345-4.78-21.015-2.891-6.419-6.944-12.185-12.044-17.137-5.108-4.959-11.015-8.856-17.556-11.582-6.808-2.837-14.003-4.275-21.387-4.275-.204 0-.405.001-.609.003h-80.499v-39.669-65.745c0-5.985-4.852-10.837-10.837-10.837h-35.895-35.895c-5.959 0-10.8 4.812-10.837 10.771l-.463 75.938-.218 35.752c-2.843 7.607-4.676 15.461-5.454 23.379-.829 8.431-.451 16.791 1.124 24.845 1.586 8.11 4.35 15.738 8.215 22.67 3.993 7.161 9.076 13.426 15.109 18.621 7.716 6.646 16.862 11.431 27.183 14.224 4.502 1.218 9.145 2.039 13.873 2.456v58.79c0 15.872 12.912 28.784 28.784 28.784 2.343 0 4.835-.326 7.207-.943 4.346-1.131 8.246-3.173 11.591-6.07 4.009-3.472 6.985-8.056 8.607-13.255 1.079-3.46 1.345-6.439 1.377-8.328.001-.062.002-.125.002-.187v-57.957c12.89-.239 25.043-.737 35.341-1.279l-10.008 47.894c-2.293 7.803-1.817 16.063 1.354 23.318 3.267 7.477 9.091 13.111 15.978 15.457 2.494.85 5.152 1.281 7.902 1.281 3.519 0 7.059-.694 10.522-2.063 3.365-1.33 6.491-3.234 9.291-5.659 2.921-2.53 5.368-5.527 7.273-8.908 1.985-3.523 3.326-7.373 3.989-11.448l16.441-78.68c10.105-10.608 15.652-24.681 15.319-39.146z" fill="#fc9"/><path d="m346.711 308.313c0 13.846-11.225 25.071-25.071 25.071s-25.071-11.225-25.071-25.071" fill="#f2b170"/><ellipse cx="228.994" cy="354.011" fill="#f2b170" rx="26.047" ry="20.626"/><path d="m183.278 238.876c13.836 0 25.052 11.216 25.052 25.052s-11.216 25.052-25.052 25.052" fill="#f2b170"/><g fill="#e6a86a"><path d="m237.383 460.015c14.9-.254 29.8-.508 44.7-.762.031 0 .063 0 .094-.001 2.836 18.372-10.35 32.652-21.844 32.848-11.494.197-25.159-13.626-22.95-32.085z"/><path d="m225.284 490.577c-12.726.533-26.394-12.927-24.382-30.224 15.488-.169 30.977-.339 46.465-.508 2.424 16.589-9.78 30.217-22.083 30.732z"/><path d="m336.019 491.847c-12.014-2.985-22.319-20.948-15.089-39.325 15.612 3.796 31.224 7.591 46.836 11.387-2.063 19.759-19.675 30.937-31.747 27.938z"/><path d="m314.806 491.593c-9.386-3.106-13.135-18.153-13.564-19.959-2.191-9.227-.076-16.95 1.118-20.424 15.577 4.233 31.155 8.466 46.732 12.699-8.297 20.815-24.35 30.972-34.286 27.684z"/><path d="m327.911 22.731c-.579-1.724-1.984-3.043-3.742-3.511-16.602-4.421-34.302.369-46.193 12.502-5.846 5.964-9.929 13.38-11.809 21.445-1.882 8.077-1.483 16.498 1.155 24.352.579 1.724 1.985 3.043 3.742 3.511 4.087 1.088 8.238 1.618 12.354 1.618 12.607 0 24.874-4.974 33.839-14.121 5.846-5.964 9.929-13.38 11.809-21.445 1.883-8.076 1.484-16.497-1.155-24.351z"/><path d="m160.316 31.723c-11.891-12.133-29.591-16.923-46.193-12.502-1.757.468-3.163 1.787-3.742 3.511-2.638 7.854-3.037 16.275-1.155 24.352 1.879 8.065 5.963 15.481 11.808 21.445 8.965 9.147 21.23 14.121 33.839 14.121 4.116 0 8.269-.53 12.354-1.618 1.758-.468 3.163-1.787 3.742-3.511 2.638-7.854 3.037-16.274 1.155-24.352-1.879-8.066-5.962-15.481-11.808-21.446z"/></g><path d="m324.953 111.059c-4.761-13.394-12.507-26.585-22.402-38.145-10.413-12.165-23.055-22.307-36.562-29.328-15.02-7.808-30.78-11.767-46.842-11.768-.001 0-.001 0-.001 0-16.057 0-31.815 3.958-46.831 11.764-13.505 7.02-26.147 17.159-36.559 29.322-9.897 11.561-17.647 24.753-22.41 38.149-4.93 13.864-6.531 27.632-4.63 39.816 4.606 29.524 25.435 50.074 31.709 55.669 28.039 25.004 61.01 25.005 78.724 25.005h.098c17.738 0 50.642-.047 78.626-25.005 6.272-5.593 27.093-26.138 31.706-55.668 1.9-12.182.301-25.948-4.626-39.811z" fill="#fc9"/><ellipse cx="219.146" cy="160.428" fill="#e6a86a" rx="56.598" ry="48.736"/><ellipse cx="288.322" cy="129.656" fill="#f4b3a2" rx="13.58" ry="9.921"/><ellipse cx="149.971" cy="129.656" fill="#f4b3a2" rx="13.58" ry="9.921"/><path d="m451.207 276.344c-.579-1.724-1.984-3.043-3.742-3.511-10.792-2.874-22.301.244-30.037 8.137-7.053 7.196-9.905 17.243-7.793 26.843l-16.266 14.553c-2.151-3.186-4.636-6.155-7.439-8.877-5.108-4.959-11.015-8.856-17.556-11.582-6.808-2.837-14.003-4.275-21.387-4.275-.204 0-.405.001-.609.003h-80.499v-39.669-32.725c10.661-3.675 21.662-9.491 31.993-18.704 6.272-5.593 27.093-26.138 31.706-55.668 1.903-12.182.304-25.948-4.623-39.81-4.206-11.833-10.743-23.505-19.031-34.036 4.14-2.215 7.971-5.061 11.336-8.495 5.846-5.964 9.929-13.38 11.809-21.445 1.882-8.077 1.483-16.498-1.155-24.352-.579-1.724-1.984-3.043-3.742-3.511-16.602-4.421-34.302.369-46.193 12.502-3.842 3.92-6.922 8.466-9.116 13.412-.953-.531-1.91-1.049-2.871-1.549-3.968-2.063-7.989-3.855-12.053-5.378v-9.031c0-5.377-4.359-9.736-9.736-9.736s-9.736 4.359-9.736 9.736v3.857c-5.065-.808-10.175-1.215-15.316-1.216-.001 0-.001 0-.001 0-5.141 0-10.251.408-15.316 1.216v-3.857c0-5.377-4.359-9.736-9.736-9.736s-9.736 4.359-9.736 9.736v9.032c-4.06 1.522-8.077 3.312-12.042 5.373-.965.502-1.925 1.021-2.881 1.554-2.194-4.946-5.275-9.493-9.117-13.413-11.897-12.132-29.597-16.922-46.199-12.501-1.757.468-3.163 1.787-3.742 3.511-2.638 7.854-3.037 16.275-1.155 24.352 1.879 8.065 5.963 15.481 11.808 21.445 3.367 3.435 7.199 6.281 11.339 8.496-8.286 10.529-14.822 22.198-19.029 34.028-4.93 13.864-6.531 27.632-4.63 39.816 4.606 29.524 25.435 50.074 31.709 55.669 10.266 9.155 21.193 14.955 31.79 18.634l-.262 42.922-.218 35.752c-2.843 7.607-4.676 15.461-5.454 23.379-.829 8.431-.451 16.791 1.124 24.845 1.586 8.11 4.35 15.738 8.215 22.67 3.993 7.161 9.076 13.426 15.109 18.621 1.837 1.582 3.755 3.057 5.75 4.426v70.235c-.085 3.925.614 7.758 2.08 11.397 1.42 3.524 3.49 6.698 6.153 9.435 2.648 2.721 5.742 4.866 9.196 6.375 3.613 1.578 7.436 2.378 11.363 2.378.144 0 .29-.001.434-.003 3.888-.059 7.663-.901 11.22-2.502 2.128-.958 4.116-2.158 5.942-3.588 4.886 3.821 11.032 6.102 17.701 6.102 2.343 0 4.835-.326 7.207-.943 4.346-1.131 8.246-3.173 11.591-6.07 4.009-3.472 6.985-8.056 8.607-13.255 1.079-3.46 1.345-6.439 1.377-8.328.001-.062.002-.125.002-.187v-57.957c5.582-.104 11.025-.256 16.24-.439l-10.681 51.117c-.008.04-.016.08-.024.119-.663 3.355-.822 6.759-.474 10.119.34 3.277 1.153 6.438 2.418 9.396 2.701 6.316 7.321 11.311 13.009 14.065 3.47 1.68 7.281 2.533 11.328 2.533 3.393 0 6.817-.619 10.093-1.796.251.096.504.188.758.275 2.494.85 5.152 1.281 7.902 1.281 3.519 0 7.059-.694 10.522-2.063 3.365-1.33 6.491-3.234 9.291-5.659 2.921-2.53 5.368-5.527 7.273-8.908 1.985-3.523 3.326-7.373 3.989-11.448l16.441-78.68c10.106-10.606 15.654-24.68 15.321-39.144-.146-6.351-1.391-12.545-3.703-18.454l18.769-16.793c.391-.35.724-.74.999-1.158 1.144.127 2.288.193 3.429.193 8.199 0 16.177-3.237 22.01-9.188 7.804-7.966 10.466-19.422 6.947-29.9zm-165.491-237.035c5.03-5.132 10.304-7.297 15.067-9.192 4.45-1.771 11.637-4.006 20.991-4.259.052 4.609-.442 11.928-3.611 20.182-2.57 6.695-5.998 11.657-8.645 14.903-3.165 3.229-6.867 5.782-10.887 7.6-6.233-6.641-13.136-12.581-20.457-17.618 1.667-4.246 4.198-8.205 7.542-11.616zm-156.941 21.634c-5.023-5.125-7.02-10.488-8.645-14.903-1.55-4.211-3.475-11.041-3.412-19.844 9.303.047 16.45 2.22 20.792 3.92 4.548 1.781 9.943 3.965 15.067 9.192 3.344 3.412 5.876 7.372 7.542 11.618-7.319 5.037-14.222 10.977-20.455 17.618-4.02-1.818-7.724-4.371-10.889-7.601zm19.029 139.375c-5.579-5.041-24.095-23.527-28.133-49.752-3.234-21.003 5.786-47.262 23.577-68.841.308-.373.618-.746.931-1.116 2.537-3.003 5.186-5.845 7.931-8.52 3.316-3.23 6.774-6.214 10.35-8.944 3.317-2.532 6.736-4.844 10.236-6.925 3.799-2.259 7.694-4.245 11.661-5.949 6.341-2.723 12.866-4.723 19.473-5.944 5.073-.938 10.194-1.419 15.318-1.419 5.123 0 10.244.481 15.316 1.419 6.607 1.222 13.132 3.221 19.473 5.943 3.967 1.703 7.863 3.69 11.661 5.948 3.501 2.081 6.919 4.392 10.236 6.924 3.577 2.73 7.036 5.715 10.353 8.946 2.749 2.678 5.4 5.523 7.94 8.53.31.367.617.736.922 1.106 17.792 21.58 26.809 47.84 23.572 68.841-4.044 26.234-22.553 44.714-28.13 49.753-7.948 7.182-16.325 12.068-24.612 15.395-3.645 1.463-7.271 2.625-10.837 3.546-13.659 3.53-26.417 3.545-35.792 3.545-.034 0-.068 0-.102 0-9.42 0-22.28-.002-36.046-3.584-3.559-.926-7.179-2.092-10.816-3.559-8.245-3.327-16.575-8.199-24.482-15.343zm77.734 286.449c-.09.001-.179.002-.269.002-9.937 0-18.234-8.435-17.955-18.616v-64.318c3.374 1.5 6.909 2.753 10.595 3.75 4.502 1.218 9.145 2.039 13.873 2.456v58.79c0 5.285 1.433 10.241 3.929 14.502-2.885 2.108-6.4 3.377-10.173 3.434zm89.147-1.524c-6.657-3.224-10.727-12.114-8.889-21.416l11.254-53.856c2.642-.121 5.195-.247 7.643-.376l-10.008 47.894c-2.293 7.803-1.817 16.063 1.354 23.318.904 2.068 2.004 3.995 3.268 5.751-1.627-.186-3.189-.62-4.622-1.315zm77.235-133.352c.3 13.045-5.319 25.073-14.427 33.48l-17.163 82.137c-1.451 9.433-7.888 15.856-14.717 18.206-1.901.654-3.833.993-5.696.993-1.534 0-3.022-.23-4.407-.702-1.476-.503-2.881-1.297-4.168-2.33-5.724-4.591-9.132-13.914-6.147-23.509l13.002-62.224c-4.982.326-11.423.712-18.859 1.071-3.605.174-7.444.342-11.465.493-9.064.342-19.052.601-29.36.664v68.66c-.02 1.175-.265 8.4-6.244 13.579-4.895 4.24-10.47 4.368-11.703 4.368-3.926 0-7.567-1.279-10.53-3.438-3.671-2.676-6.301-6.706-7.135-11.341-.185-1.029-.282-2.088-.282-3.168v-69.394c-5.76.96-20.882 2.674-36.394-5.452-24.162-12.657-29.249-38.697-30.224-43.684-4.171-21.348 3.518-38.441 6.556-44.405.158-25.874.316-51.749.473-77.623 14.208 3.267 27.127 3.27 36.115 3.27h.098c8.938 0 21.727-.014 35.796-3.218v29.643 50.506h91.399c.183-.002.364-.003.546-.003 16.072 0 30.26 8.558 38.209 21.21 2.202 3.505 3.926 7.323 5.078 11.361.995 3.474 1.563 7.111 1.649 10.85zm47.926-54.593c-5.15 5.385-12.476 7.971-19.773 7.145-1.103-7.041 1.115-14.276 6.164-19.555 5.151-5.386 12.478-7.971 19.773-7.145 1.103 7.041-1.116 14.276-6.164 19.555z"/><path d="m263.15 111.437c.709.156 5.364 1.131 9.111-2.165 2.447-2.152 3.955-5.401 3.484-8.747-.461-3.274-2.668-5.973-5.502-7.478-.486-.258-4.707-2.385-9.27-.308-.919.418-4.198 2.075-5.471 5.966-.175.535-1.211 3.884.554 7.414 2.034 4.07 6.157 5.111 7.094 5.318z"/><path d="m183.166 100.525c-.462-3.274-2.668-5.973-5.502-7.478-.486-.258-4.707-2.385-9.27-.308-.919.418-4.198 2.075-5.471 5.966-.175.535-1.211 3.884.554 7.414 2.034 4.07 6.157 5.112 7.094 5.318.709.156 5.364 1.131 9.111-2.165 2.446-2.152 3.955-5.401 3.484-8.747z"/><path d="m218.564 166.302c.195.006.388.009.583.009 9.402 0 17.68-6.294 20.251-15.479.668-2.387-.725-4.864-3.112-5.532-2.389-.673-4.865.724-5.533 3.112-.461 1.649-.593 1.935-1.705 3.659-1.249 1.936-2.838 2.989-3.58 3.47-.971.629-3.356 2.175-6.656 2.098-4.183-.098-6.947-2.737-8.05-3.789-.504-.481-1.365-1.371-2.155-2.738-.402-.696-.736-1.514-1.066-2.698-.667-2.388-3.141-3.785-5.53-3.116-2.388.666-3.783 3.143-3.117 5.53 2.473 8.859 10.561 15.222 19.67 15.474z"/></svg>