<?xml version="1.0" encoding="UTF-8"?>
<svg xmlns="http://www.w3.org/2000/svg" xmlns:xlink="http://www.w3.org/1999/xlink" version="1.1" x="0px" y="0px" viewBox="0 0 512 512" style="enable-background:new 0 0 512 512;" xml:space="preserve" width="512" height="512">
<style type="text/css">
	.st0{fill:#698F64;}
	.st1{fill:#86B57E;}
	.st2{fill:none;stroke:#1C453E;stroke-width:3.6394;stroke-linecap:round;stroke-linejoin:round;stroke-miterlimit:10;}
	.st3{fill:#FFFFFF;}
	.st4{fill:#C27D9C;}
</style>


<g id="Слой_1">
	<path class="st0" d="M271.111,31.222c-6.362-10.207-22.553-14.4-33.793-12.44c-5.95,1.037-9.055,5.04-9.233,11.001   c-0.125,4.168,0.296,8.487,0.998,12.746c-7.421,1.376-14.631,4.808-19.641,9.128c-5.746,4.955-5.141,11.108-1.982,17.366   c2.203,4.364,4.801,8.599,7.649,12.643c-1.325,0.45-2.574,0.942-3.673,1.409c-6.439,2.741-13.071,7.136-16.078,13.701   c-3.338,7.287-0.457,14.853,3.288,21.359c1.553,2.699,3.401,5.68,5.521,8.479c-3.084,0.526-6.147,1.661-8.525,2.673   c-6.439,2.74-13.071,7.135-16.078,13.7c-3.338,7.288-0.456,14.853,3.288,21.359c1.506,2.617,3.291,5.498,5.331,8.223   c-3.019,0.54-6.005,1.65-8.335,2.642c-6.439,2.74-13.071,7.136-16.078,13.7c-3.338,7.288-0.457,14.853,3.288,21.359   c2.216,3.851,5.03,8.273,8.383,11.923c-4.242-0.183-9.004,1.508-12.387,2.948c-6.439,2.74-13.071,7.136-16.078,13.7   c-3.338,7.288-0.457,14.853,3.287,21.359c2.129,3.699,4.812,7.924,7.991,11.487c-3.864,0.179-7.979,1.662-10.995,2.946   c-6.439,2.741-13.071,7.136-16.078,13.701c-3.338,7.288-0.457,14.853,3.288,21.359c3.619,6.29,8.827,14.113,15.387,17.581   c2.476,1.309,5.399-0.322,5.488-3.149c0.003-0.078,0.005-0.13,0.006-0.17c0.097-0.46,0.188-0.922,0.286-1.382   c0.407-1.928,0.797-3.859,1.196-5.789c1.21-5.856,2.42-11.712,3.63-17.568c1.495-7.237,2.63-14.692,4.376-21.903   c0.27,0.16,0.539,0.324,0.813,0.469c2.476,1.309,5.399-0.322,5.488-3.149c0.002-0.078,0.005-0.13,0.006-0.171   c0.097-0.46,0.188-0.922,0.285-1.382c0.407-1.928,0.797-3.859,1.196-5.789c1.21-5.856,2.42-11.711,3.629-17.567   c1.559-7.545,2.734-15.322,4.61-22.817c0.518,0.339,1.042,0.661,1.579,0.945c2.476,1.309,5.399-0.322,5.488-3.149   c0.002-0.078,0.004-0.13,0.006-0.171c0.097-0.46,0.188-0.922,0.285-1.382c0.408-1.928,0.797-3.859,1.196-5.789   c1.21-5.856,2.42-11.712,3.63-17.568c1.28-6.197,2.296-12.553,3.658-18.779c0.503,0.327,1.012,0.638,1.531,0.913   c2.476,1.309,5.399-0.322,5.488-3.149c0.002-0.078,0.005-0.13,0.006-0.171c0.097-0.46,0.188-0.921,0.285-1.382   c0.407-1.928,0.797-3.859,1.196-5.789c1.21-5.856,2.42-11.712,3.63-17.568c1.297-6.28,2.326-12.723,3.715-19.028   c0.484,0.312,0.974,0.61,1.475,0.875c2.476,1.309,5.398-0.322,5.488-3.149c0.003-0.078,0.005-0.13,0.006-0.171   c0.097-0.46,0.188-0.922,0.285-1.382c0.408-1.928,0.797-3.859,1.196-5.789c1.21-5.856,2.42-11.712,3.63-17.568   c1.534-7.423,2.694-15.073,4.518-22.457c2.911-5.931,5.821-11.862,8.732-17.792c3.224-6.569,6.115-13.512,9.667-19.94   c2.035-1.374,4.07-2.748,6.105-4.123c5.372-3.628,10.661-7.818,16.294-11.062c0.093,0.025,0.186,0.053,0.28,0.078   C270.872,32.534,271.476,31.807,271.111,31.222z"/>
	<path class="st1" d="M459.817,150.594c-0.032-0.427-0.067-0.854-0.103-1.281c-0.005-0.057-0.01-0.116-0.015-0.174   c-0.099-1.157-0.204-2.314-0.31-3.469c-1.064-11.636-1.688-23.294-1.727-34.975c0-0.009,0-0.019,0-0.027   c-0.005-1.575,0.002-3.151,0.019-4.727c0.001-0.153,0.004-0.304,0.006-0.456c0.145-11.688,1.464-23.37,1.523-35.048   c0.039-2.634-0.03-5.017-0.292-7.25c-0.39-3.323-1.188-6.196-2.481-8.816c0,0-1.508-3.044-3.873-5.659   c-0.295-0.326-0.63-0.641-0.996-0.947c-1.744-1.747-3.816-3.254-6.264-4.445c-9.229-4.488-20.459-4.739-30.495-5.36   c-24.067-1.489-48.119-0.805-72.192-1.889c-10.638-0.479-21.334-0.98-31.86-2.688c-10.056-1.631-19.813-4.245-30.023-4.975   c-12.631-0.903-26.988-1.361-37.758,6.306c-10.718,7.63-15.516,19.05-19.271,31.115c-5.92,19.017-11.857,38.028-17.838,57.026   c-9.804,31.141-19.666,62.264-29.54,93.384c-0.007,0.021-0.013,0.043-0.02,0.064l-0.021,0.066   c-0.453,1.427-2.058,6.486-2.203,6.945c-0.471,1.49-2.096,6.624-4.836,15.32c-8.877,28.141-17.682,56.304-26.526,84.454   c-2.109,6.713-4.218,13.426-6.327,20.139c-0.865-1.692-1.759-3.373-2.666-5.049c-0.195-0.36-0.392-0.718-0.589-1.076   c-0.846-1.544-1.71-3.08-2.593-4.606c-0.044-0.076-0.088-0.154-0.132-0.23c-4.877-8.401-10.329-16.499-16.445-24.037   c-0.715-0.886-1.43-1.754-2.144-2.601c-0.105-0.123-0.211-0.246-0.317-0.369c-0.437-0.515-0.875-1.03-1.31-1.527   c-0.438-0.501-0.881-0.994-1.324-1.486c-0.059-0.066-0.117-0.133-0.177-0.198c-0.896-0.994-1.809-1.974-2.736-2.947   c-0.204-0.215-0.41-0.427-0.615-0.641c-0.87-0.901-1.751-1.799-2.662-2.698c-0.032-0.032-0.067-0.063-0.099-0.095   c-0.094-0.092-0.191-0.183-0.285-0.275c-0.865-0.846-1.751-1.682-2.651-2.514c-0.241-0.222-0.481-0.445-0.723-0.666   c-0.903-0.821-1.824-1.64-2.775-2.459c-0.305-0.262-0.615-0.519-0.922-0.779c-0.426-0.36-0.845-0.72-1.282-1.082   c-0.23-0.19-0.47-0.367-0.702-0.555c-0.293-0.238-0.577-0.486-0.873-0.721c-0.379-0.302-0.772-0.587-1.155-0.883   c-0.52-0.403-1.04-0.806-1.568-1.199c-0.846-0.632-1.707-1.247-2.573-1.855c-0.302-0.212-0.601-0.43-0.906-0.638   c-7.42-5.106-15.512-9.352-23.958-12.354c-0.083-0.03-0.17-0.048-0.254-0.074c-0.352-0.129-0.696-0.273-1.049-0.399   c-2.185-0.779-4.588-0.074-6.036,1.687c-1.129,1.074-1.669,2.658-1.107,4.708c0.019,0.079,0.047,0.155,0.069,0.233   c0.044,0.143,0.072,0.279,0.127,0.427c0.015,0.041,0.04,0.08,0.056,0.121c0.047,0.117,0.104,0.23,0.16,0.345   c0.97,2.052,3.072,3.813,4.547,5.508c0.663,0.788,1.307,1.592,1.952,2.395c0.38,0.473,0.77,0.937,1.142,1.414   c0.729,0.932,1.432,1.883,2.136,2.834c0.276,0.373,0.564,0.738,0.837,1.114c0.127,0.176,0.247,0.357,0.373,0.533   c0.76,1.061,1.505,2.13,2.232,3.21c0.594,0.883,1.177,1.772,1.748,2.668c0.11,0.172,0.223,0.342,0.332,0.513   c7.281,11.515,12.798,24.086,16.678,37.148c0.043,0.147,0.086,0.292,0.128,0.439c0.321,1.091,0.629,2.186,0.927,3.284   c0.062,0.228,0.125,0.457,0.185,0.684c0.325,1.219,0.64,2.44,0.937,3.666c0.004,0.015,0.008,0.031,0.012,0.046   c0.297,1.226,0.578,2.456,0.847,3.688c0.067,0.305,0.13,0.606,0.194,0.908c0.203,0.949,0.397,1.9,0.583,2.851   c0.061,0.31,0.123,0.622,0.182,0.929c2.945,15.551,3.015,30.97,3.068,46.706c0.035,11.414,0.108,19.964,0.22,29.455   c0,0.008,0,0.016,0,0.025c0.084,7.116-0.354,14.507,0.567,21.629c0.011,0.086,0.023,0.174,0.034,0.261   c0.043,0.324,0.089,0.648,0.138,0.97c0.045,0.296,0.094,0.595,0.146,0.898c0.033,0.195,0.068,0.39,0.104,0.585   c0.063,0.343,0.131,0.688,0.204,1.038c0.018,0.087,0.032,0.173,0.051,0.26c0.019,0.085,0.041,0.168,0.06,0.253   c0.092,0.415,0.191,0.834,0.298,1.258c0.019,0.073,0.037,0.145,0.056,0.217c1.252,4.865,3.528,10.213,7.641,14.904   c0.183,0.209,0.438,0.499,0.773,0.859c0,0,1.874,2.015,4.679,4.188c0.007,0.005,0.013,0.011,0.02,0.016   c0.011,0.009,0.023,0.016,0.034,0.025c1.244,0.961,2.667,1.951,4.192,2.809c1.653,0.931,3.752,1.696,6.015,2.31   c4.202,1.266,8.654,1.808,13.037,1.821c0.071,0,0.145,0.003,0.215,0.003c0.566,0.008,2.204,0.059,3.479-0.164   c0.477,0.059,0.954,0.117,1.433,0.176c1.713,1.16,3.48,2.144,5.255,3.032c2.638,1.315,5.325,2.38,8.023,3.316   c5.402,1.858,10.861,3.191,16.339,4.227c1.369,0.261,2.74,0.505,4.11,0.733c1.372,0.221,2.745,0.425,4.116,0.617l2.054,0.278   l1.02,0.132l0.506,0.065c0.219,0.025,0.503,0.055,0.702,0.071l0.568,0.043l0.536,0.036l1.048,0.064l2.056,0.112   c10.866,0.538,21.643,0.844,32.481,1.078l16.262,0.348c2.71,0.05,5.418,0.139,8.129,0.169l8.131,0.065l32.513,0.303l4.064,0.039   l2.037,0.02l1.02,0.011l0.51,0.006l0.285,0.002c0.143,0,0.286-0.004,0.429-0.011c1.142-0.056,2.274-0.327,3.319-0.795l0.098-0.044   l0.076-0.036l0.148-0.071l0.295-0.144c0.196-0.099,0.39-0.205,0.584-0.309l0.575-0.335l0.565-0.364   c1.492-1.001,2.863-2.315,3.913-3.9c0.259-0.398,0.504-0.807,0.721-1.231c0.227-0.422,0.395-0.86,0.579-1.296   c0.096-0.216,0.166-0.443,0.238-0.669l0.21-0.681c0.116-0.46,0.216-0.927,0.3-1.394c0.297-1.878,0.177-3.771-0.22-5.499   c-0.398-1.734-1.049-3.319-1.821-4.766c-0.778-1.445-1.675-2.766-2.648-3.978c-0.24-0.308-0.493-0.594-0.741-0.891   c-0.128-0.148-0.242-0.294-0.381-0.443l-0.414-0.444l-0.416-0.443c-0.142-0.144-0.29-0.282-0.435-0.423   c-0.293-0.279-0.582-0.564-0.892-0.822c-1.217-1.064-2.526-2.012-3.901-2.827c-0.533-0.315-1.077-0.606-1.626-0.885   c6.311-12.064,15.628-32.047,20.864-54.779c0.423-1.835,4.379-19.453,3.714-35.074c-0.213-5.01-0.791-10.311-1.866-15.94   c-1.668-8.739-3.187-12.33-5.946-18.85c-1.741-4.116-3.909-9.239-7.025-17.784c-5.925-16.251-13.299-36.475-13.318-60.46   c-0.008-10.746,1.013-19.595,3.369-28.874c17.476-2.29,34.821-5.335,51.971-9.117c2.074,0.399,4.151,0.705,6.225,0.906   c0.362,0.035,0.727,0.068,1.092,0.098c12.895,1.538,26.14,0.577,38.995-2.335c6.991-1.491,14.445-3.726,22.117-7.036   c7.105-2.932,13.919-6.421,20.302-10.352c0.669-0.407,1.34-0.824,2.013-1.255c0.033-0.021,0.067-0.041,0.099-0.062   c0.266-0.17,0.528-0.346,0.792-0.518c0.256-0.167,0.512-0.332,0.767-0.503c0.216-0.144,0.428-0.291,0.642-0.437   c0.352-0.239,0.704-0.476,1.056-0.722c0,0,0.001,0,0.001-0.001c4.092-2.858,8.158-6.191,11.887-10.085   c0.037-0.039,0.075-0.079,0.112-0.118c0.406-0.426,0.809-0.858,1.206-1.297c0.072-0.08,0.142-0.16,0.213-0.24   c0.368-0.411,0.734-0.825,1.093-1.248c0.105-0.124,0.207-0.25,0.312-0.375c0.327-0.391,0.655-0.783,0.975-1.184   c0.412-0.516,0.815-1.039,1.21-1.569c0.139-0.186,0.272-0.378,0.408-0.566c0.289-0.396,0.576-0.794,0.855-1.198   c0.147-0.213,0.29-0.432,0.435-0.648c0.179-0.267,0.363-0.531,0.538-0.802c0.074-0.113,0.142-0.231,0.215-0.345   c0.171-0.267,0.337-0.539,0.504-0.81c0.271-0.439,0.537-0.881,0.798-1.328c0.07-0.121,0.139-0.243,0.209-0.365   c2.184-3.81,3.974-7.905,5.093-12.137c0.147-0.541,0.279-1.073,0.397-1.596c0.007-0.033,0.017-0.065,0.024-0.098   c0.004-0.016,0.005-0.032,0.008-0.048C460.251,159.605,460.215,155.728,459.817,150.594z"/>
	<path class="st2" d="M319.505,224.703"/>
	<g>
		<path class="st0" d="M305.474,104.445c-0.571-0.869-1.657-1.421-2.703-1.1c-2.373,0.73-3.086,2.877-4.534,4.703    c-1.569,1.978-3.47,3.688-5.615,5.016c-4.767,2.952-10.421,4.321-15.99,4.506c-6.136,0.204-12.473-1.048-17.792-4.194    c-4.607-2.725-8.256-6.972-12.137-10.601c-0.413-0.387-1.04-0.098-1.075,0.445c-0.445,6.826,4.034,11.933,9.36,15.734    c6.264,4.469,14.025,6.293,21.644,6.048c6.831-0.22,13.89-1.888,19.74-5.521C300.256,117.07,308.984,109.785,305.474,104.445z"/>
	</g>
	<g>
		<path class="st3" d="M292.378,59.281c14.412,8.51,19.815,29.336,11.359,43.78S274.475,122.986,260,114.583    c-14.475-8.402-20.034-29.187-11.686-43.694c8.348-14.507,29.112-20.143,43.649-11.849L292.378,59.281z"/>
	</g>
	<path d="M219.457,132.735c0.025-0.113,0.046-0.227,0.07-0.339C219.536,132.195,219.531,132.404,219.457,132.735z"/>
	<path d="M203.732,178.608c0.008-0.202,0.004,0.007-0.07,0.339C203.687,178.834,203.708,178.721,203.732,178.608z"/>
	<path d="M171.143,274.462c0.009-0.201,0.004,0.008-0.07,0.339C171.098,274.689,171.119,274.575,171.143,274.462z"/>
	<path d="M227.944,300.816c-0.257,0.226-0.065,0.757,0.296,0.715c9.836-1.149,21.335,2.053,27.28,10.581   c3.612,5.181,4.649,11.688,4.512,17.878c-0.121,5.472-0.642,13.195-4.18,17.633c-1.641,2.058-4.754,3.985-7.52,2.993   c-3.118-1.119-3.342-4.673-3.309-7.481c0.066-5.732,0.716-10.895-2.589-15.908c-5.141-7.799-16.574-12.433-25.307-8.439   c-3.748,1.714-1.587,7.146,1.973,7.283c6.162,0.238,13.613,0.585,16.729,7.036c1.757,3.636,0.447,7.954,0.656,11.833   c0.174,3.221,1.002,6.389,2.901,9.035c3.549,4.947,9.922,6.207,15.484,4.238c6.767-2.397,10.183-8.647,11.639-15.298   c2.82-12.877,2.38-28.175-7.526-38.062C251.265,297.149,237.011,292.864,227.944,300.816z"/>
	<path d="M417.393,68.688c-0.791,1.786-1.253,3.743-1.321,5.771c-0.087,2.614,0.487,5.155,1.592,7.402   c2.067,4.202,7.986,2.701,8.19-2.045c0.038-0.877,0.061-1.775,0.069-2.694c0.019-2.4-0.074-4.673-0.244-6.807   C425.298,65.552,419.305,64.371,417.393,68.688z"/>
	<path d="M459.388,145.67c-1.217-13.304-1.858-26.637-1.707-39.999c0.138-12.204,1.587-24.401,1.542-36.593   c-0.039-10.684-3.857-20.862-13.921-25.757c-9.229-4.488-20.459-4.739-30.495-5.36c-24.067-1.488-48.119-0.806-72.192-1.889   c-10.638-0.478-21.334-0.98-31.86-2.687c-10.056-1.632-19.813-4.245-30.023-4.975c-3.953-0.283-8.075-0.522-12.203-0.482   c-7.461-7.796-21.27-10.88-31.211-9.146c-5.95,1.038-9.055,5.04-9.233,11.001c-0.125,4.168,0.296,8.488,0.998,12.747   c-7.421,1.377-14.631,4.808-19.641,9.129c-5.746,4.955-5.141,11.107-1.982,17.365c2.203,4.364,4.801,8.599,7.649,12.643   c-1.325,0.45-2.574,0.942-3.673,1.41c-6.439,2.74-13.071,7.135-16.078,13.7c-3.338,7.288-0.457,14.853,3.288,21.359   c1.553,2.699,3.401,5.68,5.521,8.479c-3.084,0.525-6.147,1.661-8.525,2.673c-6.439,2.74-13.071,7.135-16.078,13.7   c-3.338,7.288-0.456,14.853,3.288,21.36c1.506,2.617,3.291,5.498,5.331,8.222c-3.019,0.539-6.005,1.65-8.335,2.642   c-6.439,2.74-13.071,7.135-16.078,13.7c-3.338,7.288-0.457,14.853,3.288,21.36c2.052,3.566,4.616,7.624,7.647,11.103   c-0.085,0.269-0.17,0.538-0.255,0.808c-3.978,0.089-8.274,1.632-11.395,2.959c-6.439,2.741-13.071,7.136-16.078,13.701   c-3.338,7.288-0.457,14.852,3.287,21.359c2.129,3.699,4.812,7.924,7.991,11.487c-3.864,0.179-7.979,1.662-10.995,2.946   c-6.439,2.74-13.071,7.135-16.078,13.7c-3.338,7.288-0.457,14.853,3.288,21.359c2.271,3.945,5.167,8.495,8.63,12.193   c-0.126,0.401-0.252,0.802-0.377,1.203c-2.109,6.712-4.218,13.426-6.327,20.139c-10.92-21.36-25.129-41.569-44.022-56.611   c-9.006-7.17-19.297-13.07-30.159-16.931c-4.343-1.543-10.375,0.908-8.251,6.582c0.878,2.346,3.372,4.301,4.956,6.191   c2.047,2.442,4.006,4.959,5.875,7.541c12.902,17.82,21.159,38.682,25.297,60.223c3.158,16.438,3.076,32.724,3.137,49.391   c0.033,9.045,0.106,18.092,0.212,27.138c0.1,8.463-0.546,17.317,1.244,25.641c1.876,8.722,6.477,16.254,13.527,21.695   c6.613,5.103,15.127,6.957,23.382,6.966c0.537,0.001,3.141,0.117,4.453-0.386c1.888,1.339,3.851,2.442,5.823,3.43   c2.636,1.321,5.328,2.369,8.024,3.312c2.696,0.944,5.417,1.722,8.14,2.419c2.722,0.704,5.457,1.293,8.198,1.799   c2.739,0.512,5.483,0.962,8.224,1.352c1.373,0.18,2.734,0.414,4.09,0.516l4.1,0.189c5.466,0.249,10.93,0.521,16.401,0.689   c5.457,0.2,10.957,0.383,16.377,0.499c21.675,0.722,43.371,0.316,65.04,0.808l4.064,0.084l2.032,0.043l1.016,0.021l0.508,0.01   l0.275,0.005l0.429-0.011c1.143-0.055,2.276-0.323,3.321-0.79c0.853-0.389,1.587-0.796,2.346-1.304   c1.492-0.999,2.867-2.309,3.922-3.891c1.052-1.591,1.751-3.387,2.061-5.268c0.298-1.881,0.178-3.774-0.22-5.503   c-0.82-3.475-2.534-6.323-4.458-8.753c-0.946-1.181-2.062-2.404-3.282-3.463c-1.218-1.063-2.525-2.013-3.9-2.829   c-0.538-0.323-1.088-0.617-1.644-0.897c6.311-12.064,15.628-32.045,20.864-54.777c0.423-1.835,4.379-19.453,3.714-35.074   c-0.213-5.009-0.791-10.311-1.866-15.94c-1.668-8.738-3.187-12.329-5.946-18.849c-1.741-4.117-3.909-9.239-7.025-17.784   c-5.926-16.251-13.299-36.475-13.318-60.46c-0.008-10.746,1.013-19.595,3.369-28.873c17.597-2.305,35.06-5.379,52.326-9.198   c30.83,5.959,64.521-3.312,90.489-19.954c8.79-5.635,16.799-12.695,22.503-21.511c3.278-5.067,5.942-10.766,7.238-16.68   C460.609,157.964,459.948,151.792,459.388,145.67z M235.871,27.976c1.247-2.336,5.544-2.037,7.696-2.036   c5.352,0.002,10.205,1.245,15.012,2.762c-5.587,0.895-10.933,2.688-15.604,6.013c-2.434,1.733-4.549,3.67-6.43,5.756   c-0.236-1.66-0.445-3.325-0.582-5.004C235.822,33.737,234.971,29.661,235.871,27.976z M212.973,62.996   c-1.376-3.925,1.659-6.038,4.611-7.939c3.909-2.519,8.249-4.381,12.725-5.67c-2.785,5.111-4.818,10.701-6.605,16.443   c-1.058,3.399-2.121,6.797-3.181,10.196c-1.074-1.586-2.126-3.188-3.119-4.836C215.851,68.609,213.974,65.854,212.973,62.996z    M202.649,99.847c2.155-5.139,8.099-8.779,12.955-10.994c0.343-0.156,0.697-0.3,1.056-0.438c-2.995,9.589-5.999,19.176-9.012,28.76   C204.428,112.346,200.188,105.717,202.649,99.847z M186.854,146.059c2.155-5.14,8.099-8.78,12.955-10.994   c0.793-0.362,1.635-0.67,2.502-0.952c-3.202,10.155-6.405,20.309-9.617,30.461c-0.231-0.318-0.47-0.63-0.69-0.959   C188.769,158.769,184.355,152.02,186.854,146.059z M171.059,191.984c2.155-5.14,8.099-8.78,12.955-10.994   c1.22-0.557,2.555-0.988,3.925-1.39c-3.386,10.691-6.774,21.382-10.165,32.071c-0.543-0.69-1.071-1.393-1.563-2.13   C172.974,204.693,168.559,197.945,171.059,191.984z M154.265,241.913c2.155-5.139,8.099-8.779,12.955-10.994   c1.538-0.701,3.259-1.205,5.003-1.702c-3.509,11.098-7.007,22.2-10.496,33.304c-0.813-0.977-1.596-1.982-2.311-3.052   C156.18,254.624,151.765,247.875,154.265,241.913z M143.621,308.962c-3.236-4.846-7.65-11.595-5.151-17.556   c2.155-5.139,8.099-8.779,12.955-10.994c1.608-0.734,3.414-1.25,5.24-1.77c-3.514,11.202-7.028,22.404-10.544,33.606   C145.239,311.199,144.392,310.116,143.621,308.962z M448.849,160.465c-0.97,5.722-3.952,9.896-7.573,14.266   c-11.748,14.179-27.273,25.759-44.145,33.081c-16.135,7.003-33.397,9.451-50.357,7.43c-0.585-0.373-1.297-0.554-2.036-0.442   c-0.208,0.032-0.417,0.059-0.625,0.091c-8.104-1.191-16.121-3.405-23.896-6.635c-22.748-9.451-44.316-22.77-61.872-40.114   c-0.165-0.163-2.754-2.9-2.946-2.693c-1.377,1.482,17.785,19.073,19.065,20.227c13.773,12.403,29.179,23.669,46.307,30.962   c0.837,0.356,1.681,0.686,2.526,1.015c-13.742,1.584-27.52,2.701-41.304,3.33l-0.03,0.001c-0.137,0.006-0.276,0.019-0.414,0.036   c-2.729,0.339-4.735,2.637-4.787,5.309c-2.996,10.951-4.338,21.49-4.329,33.927c0.019,25.909,7.759,47.136,13.978,64.192   c3.21,8.806,5.532,14.292,7.228,18.299c2.627,6.209,3.827,9.043,5.277,16.642c1.031,5.401,1.582,10.439,1.741,15.317   c0.454,13.88-3.061,29.321-3.533,31.328c-5.136,21.832-13.793,42.854-18.837,54.243c-2.534-0.485-5.06-0.698-7.558-0.696   c1.447-3.769,2.532-7.685,3.238-11.66c0.298-1.713,0.493-3.403,0.657-5.161c0.143-1.773,0.191-3.492,0.184-5.216   c-0.049-3.438-0.342-6.852-0.892-10.233c-1.105-6.743-3.222-13.378-6.464-19.469c-1.618-3.043-3.528-5.928-5.662-8.621   c-2.126-2.696-4.493-5.194-7.114-7.426c-5.204-4.498-11.278-7.908-17.542-10.143c-6.259-2.294-12.607-3.721-18.853-5.052   c-12.708-2.799-25.821-3.343-38.508-1.698c12.796,0.195,25.398,2.251,37.342,6.077c6.078,1.948,12.093,3.839,17.643,6.415   c2.766,1.298,5.432,2.723,7.904,4.39c2.475,1.662,4.766,3.541,6.861,5.614c4.19,4.145,7.659,9.053,10.12,14.374   c2.525,5.305,4.066,11.064,4.854,16.933c0.395,2.929,0.559,5.897,0.525,8.839c-0.014,1.466-0.078,2.939-0.213,4.345   c-0.155,1.415-0.343,2.895-0.616,4.322c-0.499,2.879-1.232,5.712-2.184,8.475c-0.975,2.754-2.138,5.446-3.486,8.056l-0.111,0.216   c-0.495,0.959-0.67,2.092-0.42,3.229c0.571,2.586,3.13,4.221,5.717,3.65l0.025-0.006c4.828-1.162,9.777-1.553,14.308-0.771   c4.646,0.831,8.638,2.837,11.512,6.335c1.478,1.746,2.633,3.65,3.072,5.456c0.46,1.796,0.212,3.401-0.651,4.794   c-0.436,0.677-1.031,1.293-1.776,1.809c-0.36,0.249-0.815,0.497-1.19,0.672c-0.188,0.086-0.393,0.136-0.6,0.148l-7.896-0.129   c-10.79-0.212-21.578-0.509-32.361-0.907l-8.086-0.327c-2.694-0.126-5.386-0.351-8.079-0.521l-16.153-1.092   c-10.724-0.759-21.35-1.445-32.036-1.969l-4.002-0.208c-1.34-0.086-2.654-0.285-3.963-0.436c-2.618-0.328-5.219-0.71-7.803-1.149   c-5.161-0.898-10.278-1.934-15.184-3.37c-4.872-1.435-9.66-3.243-13.381-5.815c-0.946-0.628-1.736-1.337-2.481-2.052   c-0.663-0.743-1.317-1.482-1.712-2.281c-0.854-1.476-1.179-3.599-1.004-5.763c0.04-0.512,0.126-1.127,0.197-1.42   c0.133-0.561,0.266-1.031,0.463-1.52c0.372-0.971,0.893-1.913,1.549-2.801c1.316-1.776,3.161-3.318,5.249-4.619   c4.227-2.577,9.35-4.087,14.594-5.013l0.006-0.001c0.452-0.08,0.806-0.462,0.833-0.94c0.031-0.558-0.395-1.035-0.953-1.066   c-2.766-0.154-5.569-0.068-8.376,0.324c-2.809,0.371-5.624,1.078-8.355,2.218c-2.732,1.125-5.402,2.744-7.642,5.057   c-1.117,1.151-2.117,2.473-2.92,3.936c-0.407,0.72-0.76,1.517-1.037,2.243c-0.37,0.986-0.519,1.71-0.692,2.531   c-0.315,1.599-0.451,3.24-0.367,4.945c0.056,0.855,0.158,1.718,0.352,2.59c0.081,0.435,0.24,0.873,0.364,1.31   c0.135,0.436,0.261,0.881,0.457,1.281l0.554,1.232c0.204,0.393,0.435,0.762,0.658,1.143c0.43,0.786,0.975,1.418,1.486,2.116   c0.735,0.86,1.507,1.672,2.309,2.414c-0.258-0.052-0.463-0.093-0.571-0.122c-6.825-1.815-13.708-3.977-19.095-8.768   c-6.485-5.768-7.504-13.221-8.315-21.428c-1.123-11.363-0.786-22.552-0.798-33.942c-0.017-16.745,0.663-33.693-1.122-50.37   c-2.16-20.177-7.532-40.12-16.486-58.361c-2.654-5.406-5.623-10.659-8.908-15.706c12.707,8.169,23.366,19.304,32.279,31.424   c4.706,6.399,8.965,13.119,12.84,20.051c3.509,6.278,5.957,13.422,9.703,19.502c1.358,2.205,3.62,3.562,6.238,2.907   c4.263-1.068,4.755-6.45,5.843-9.909c2.716-8.642,5.426-17.286,8.138-25.929c0.552-1.761,1.105-3.522,1.658-5.283   c0.043-0.136,0.086-0.272,0.128-0.408c1.213-3.866,2.427-7.732,3.64-11.599c3.361-10.712,6.732-21.422,10.096-32.133   c0.561-1.784,1.123-3.568,1.684-5.352c0.067-0.213,0.134-0.426,0.201-0.638c1.422-4.526,2.847-9.053,4.271-13.578   c2.595-8.25,5.181-16.501,7.784-24.748c0.582-1.845,1.17-3.688,1.753-5.533c0.573-1.811,1.148-3.622,1.722-5.433   c0.171-0.541,0.343-1.082,0.514-1.623c2.313-7.304,4.624-14.609,6.943-21.911c1.824-5.744,3.642-11.488,5.464-17.233   c0.545-1.719,1.09-3.438,1.635-5.156c0.285-0.899,0.571-1.799,0.856-2.698c1.006-3.175,2.016-6.348,3.019-9.523   c1.272-2.069,1.726-4.925,2.447-7.205c0.718-2.276,1.986-4.881,2.134-7.299c0.713-2.262,1.429-4.522,2.143-6.783   c0.852-2.694,1.702-5.387,2.554-8.081c0.488-1.541,0.974-3.081,1.461-4.623c0.39-1.235,0.78-2.47,1.171-3.704   c4.393-13.897,8.773-27.798,13.081-41.722c0.016-0.033,0.032-0.066,0.048-0.099c0.026-0.107,0.056-0.214,0.082-0.321   c0.168-0.545,0.339-1.089,0.508-1.633c0.031-0.102,0.062-0.206,0.093-0.308c0.071-0.095,0.108-0.214,0.102-0.336   c1.859-6.113,3.591-13.045,6.032-19.559c1.566-4.177,3.427-8.175,5.801-11.671c1.12-1.65,2.357-3.184,3.729-4.574   c0.78-0.79,1.606-1.531,2.48-2.22c3.009-2.372,6.602-4.098,10.945-4.931c0.35-0.067,0.693-0.142,1.053-0.198   c9.118-1.398,18.585,0.649,27.665,1.67c12.238,1.376,24.484,2.687,36.744,3.86c11.376,1.087,22.842,2.344,34.273,2.648   c6.278,0.167,12.586-0.234,18.87-0.19c14.447,0.103,28.943,0.725,43.342,1.909c7.267,0.599,17.661,0.709,23.225,6.296   c6.817,6.845,4.019,19.603,3.506,28.095c-0.828,13.709-1.104,27.42-0.571,41.148c0.25,6.435,0.682,12.858,1.252,19.273   C448.762,149.496,449.754,155.126,448.849,160.465z"/>
	<path d="M294.927,59.708c0.188-0.944-0.128-1.997-1.206-2.724c-0.626-0.423-1.27-0.809-1.924-1.173   c-1.922-1.069-3.957-1.889-6.062-2.475c-10.586-2.948-22.933-0.022-31.489,6.513c-0.59,0.451-1.154,0.922-1.703,1.404   c0.002-0.058,0.005-0.117,0.006-0.175c0.003-0.068-0.107-0.068-0.105,0c0.003,0.083,0.007,0.168,0.01,0.252   c-5.381,4.763-8.812,11.031-10.22,17.792c-0.418,2.009-0.658,4.06-0.717,6.129c-0.121,4.223,0.506,8.516,1.908,12.651   c4.775,14.088,17.416,23.744,32.468,23.419c14.121-0.305,27.775-8.728,32.538-22.328C313.477,84.585,308.055,67.468,294.927,59.708   z M304.842,92.592c-2.21,12.398-12.752,21.087-24.954,22.861c-12.293,1.788-23.836-4.168-29.313-15.334   c-2.7-5.506-3.728-11.78-2.933-17.758c0.296-2.224,0.844-4.405,1.653-6.491c1.296-3.345,3.258-6.445,5.927-9.07   c6.397-6.29,15.172-9.097,23.804-8.47c0.495,0.035,0.991,0.08,1.485,0.139c1.658,0.197,3.306,0.521,4.925,0.972   c0.523,0.145,1.042,0.309,1.559,0.482c1.376,0.459,2.728,1.007,4.041,1.655c1.033,0.51,1.989,0.368,2.705-0.107   C302.158,68.95,306.812,81.539,304.842,92.592z"/>
	<path d="M284.589,76.436c-0.088,0.015-0.173,0.04-0.26,0.057c-4.917,0.987-8.249,5.413-8.423,9.866   c-0.253,6.481,6.204,12.288,12.404,11.164c5.759-1.044,9.441-7.732,8.152-13.372c-0.148-0.649-0.347-1.29-0.632-1.901   C294.017,78.365,289.419,75.597,284.589,76.436z"/>
	<ellipse class="st4" cx="244.408" cy="137.878" rx="14.654" ry="9.03"/>
</g>
</svg>
