<?xml version="1.0" encoding="UTF-8"?>
<svg xmlns="http://www.w3.org/2000/svg" xmlns:xlink="http://www.w3.org/1999/xlink" version="1.1" id="Слой_1" x="0px" y="0px" viewBox="0 0 512 512" style="enable-background:new 0 0 512 512;" xml:space="preserve" width="512" height="512">
<style type="text/css">
	.st0{fill:#FFCC99;}
	.st1{fill:#F1D88C;}
	.st2{fill:#F2B170;}
	.st3{fill:#E6A86A;}
	.st4{fill:#F4B3A2;}
</style>

<path class="st0" d="M254.045,468.021v-72.66c0-15.872-12.912-28.784-28.784-28.784s-28.784,12.912-28.784,28.784v72.662  c-0.085,3.925,0.614,7.758,2.08,11.397c1.42,3.524,3.49,6.698,6.153,9.435c2.648,2.721,5.742,4.866,9.196,6.375  c3.613,1.578,7.436,2.378,11.363,2.378c0.144,0,0.29-0.001,0.434-0.003c3.888-0.059,7.663-0.901,11.22-2.502  c3.403-1.531,6.447-3.684,9.047-6.399c2.617-2.733,4.65-5.893,6.042-9.394C253.447,475.701,254.131,471.904,254.045,468.021z"/>
<path class="st1" d="M374.149,355.346c-0.728-3.67-2.14-7.125-4.197-10.269c-2.057-3.144-4.658-5.821-7.729-7.958  c-3.197-2.223-6.754-3.755-10.575-4.553l-0.168-0.035c-1.951-0.408-3.939-0.614-5.917-0.614l0,0h-0.001  c-6.555,0-12.999,2.272-18.146,6.397c-5.234,4.195-8.869,10.109-10.237,16.654l-22.271,106.585c-0.008,0.04-0.016,0.08-0.024,0.119  c-0.663,3.355-0.822,6.759-0.474,10.119c0.34,3.277,1.153,6.438,2.418,9.396c2.701,6.316,7.321,11.311,13.009,14.065  c3.47,1.68,7.281,2.533,11.328,2.533c6.375,0,12.861-2.185,18.263-6.153c5.779-4.244,9.973-10.188,12.13-17.19  c0.101-0.329,0.187-0.662,0.258-0.999l22.271-106.585C374.886,363.039,374.906,359.165,374.149,355.346z"/>
<path class="st2" d="M451.207,276.344c-0.579-1.724-1.984-3.043-3.742-3.511c-10.792-2.874-22.301,0.244-30.037,8.137  c-7.805,7.964-10.467,19.42-6.948,29.897c0.579,1.724,1.984,3.043,3.742,3.511c2.655,0.707,5.352,1.051,8.027,1.051  c8.199,0,16.177-3.237,22.01-9.188C452.064,298.278,454.726,286.822,451.207,276.344z"/>
<path class="st0" d="M402.754,351.642c-0.167-7.274-1.776-14.345-4.78-21.015c-2.891-6.419-6.944-12.185-12.044-17.137  c-5.108-4.959-11.015-8.856-17.556-11.582c-6.808-2.837-14.003-4.275-21.387-4.275c-0.204,0-0.405,0.001-0.609,0.003h-80.499  v-39.669v-65.745c0-5.985-4.852-10.837-10.837-10.837h-35.895h-35.895c-5.959,0-10.8,4.812-10.837,10.771l-0.463,75.938  l-0.218,35.752c-2.843,7.607-4.676,15.461-5.454,23.379c-0.829,8.431-0.451,16.791,1.124,24.845c1.586,8.11,4.35,15.738,8.215,22.67  c3.993,7.161,9.076,13.426,15.109,18.621c7.716,6.646,16.862,11.431,27.183,14.224c4.502,1.218,9.145,2.039,13.873,2.456v58.79  c0,15.872,12.912,28.784,28.784,28.784c2.343,0,4.835-0.326,7.207-0.943c4.346-1.131,8.246-3.173,11.591-6.07  c4.009-3.472,6.985-8.056,8.607-13.255c1.079-3.46,1.345-6.439,1.377-8.328c0.001-0.062,0.002-0.125,0.002-0.187v-57.957  c12.89-0.239,25.043-0.737,35.341-1.279l-10.008,47.894c-2.293,7.803-1.817,16.063,1.354,23.318  c3.267,7.477,9.091,13.111,15.978,15.457c2.494,0.85,5.152,1.281,7.902,1.281c3.519,0,7.059-0.694,10.522-2.063  c3.365-1.33,6.491-3.234,9.291-5.659c2.921-2.53,5.368-5.527,7.273-8.908c1.985-3.523,3.326-7.373,3.989-11.448l16.441-78.68  C397.54,380.18,403.087,366.107,402.754,351.642z"/>
<path class="st2" d="M346.711,308.313c0,13.846-11.225,25.071-25.071,25.071c-13.846,0-25.071-11.225-25.071-25.071"/>
<ellipse class="st2" cx="228.994" cy="354.011" rx="26.047" ry="20.626"/>
<path class="st2" d="M183.278,238.876c13.836,0,25.052,11.216,25.052,25.052s-11.216,25.052-25.052,25.052"/>
<path class="st3" d="M237.383,460.015c14.9-0.254,29.8-0.508,44.7-0.762c0.031,0,0.063,0,0.094-0.001  c2.836,18.372-10.35,32.652-21.844,32.848C248.839,492.297,235.174,478.474,237.383,460.015z"/>
<path class="st3" d="M225.284,490.577c-12.726,0.533-26.394-12.927-24.382-30.224c15.488-0.169,30.977-0.339,46.465-0.508  C249.791,476.434,237.587,490.062,225.284,490.577z"/>
<path class="st3" d="M336.019,491.847c-12.014-2.985-22.319-20.948-15.089-39.325c15.612,3.796,31.224,7.591,46.836,11.387  C365.703,483.668,348.091,494.846,336.019,491.847z"/>
<path class="st3" d="M314.806,491.593c-9.386-3.106-13.135-18.153-13.564-19.959c-2.191-9.227-0.076-16.95,1.118-20.424  c15.577,4.233,31.155,8.466,46.732,12.699C340.795,484.724,324.742,494.881,314.806,491.593z"/>
<path class="st3" d="M327.911,22.731c-0.579-1.724-1.984-3.043-3.742-3.511c-16.602-4.421-34.302,0.369-46.193,12.502  c-5.846,5.964-9.929,13.38-11.809,21.445c-1.882,8.077-1.483,16.498,1.155,24.352c0.579,1.724,1.985,3.043,3.742,3.511  c4.087,1.088,8.238,1.618,12.354,1.618c12.607,0,24.874-4.974,33.839-14.121l0,0c5.846-5.964,9.929-13.38,11.809-21.445  C330.949,39.006,330.55,30.585,327.911,22.731z"/>
<path class="st3" d="M160.316,31.723C148.425,19.59,130.725,14.8,114.123,19.221c-1.757,0.468-3.163,1.787-3.742,3.511  c-2.638,7.854-3.037,16.275-1.155,24.352c1.879,8.065,5.963,15.481,11.808,21.445l0,0c8.965,9.147,21.23,14.121,33.839,14.121  c4.116,0,8.269-0.53,12.354-1.618c1.758-0.468,3.163-1.787,3.742-3.511c2.638-7.854,3.037-16.274,1.155-24.352  C170.245,45.103,166.162,37.688,160.316,31.723z"/>
<path class="st0" d="M324.953,111.059c-4.761-13.394-12.507-26.585-22.402-38.145c-10.413-12.165-23.055-22.307-36.562-29.328  c-15.02-7.808-30.78-11.767-46.842-11.768c-0.001,0-0.001,0-0.001,0c-16.057,0-31.815,3.958-46.831,11.764  c-13.505,7.02-26.147,17.159-36.559,29.322c-9.897,11.561-17.647,24.753-22.41,38.149c-4.93,13.864-6.531,27.632-4.63,39.816  c4.606,29.524,25.435,50.074,31.709,55.669c28.039,25.004,61.01,25.005,78.724,25.005c0.033,0,0.064,0,0.098,0  c17.738,0,50.642-0.047,78.626-25.005c6.272-5.593,27.093-26.138,31.706-55.668C331.479,138.688,329.88,124.922,324.953,111.059z"/>
<ellipse class="st3" cx="219.146" cy="160.428" rx="56.598" ry="48.736"/>
<ellipse class="st4" cx="288.322" cy="129.656" rx="13.58" ry="9.921"/>
<ellipse class="st4" cx="149.971" cy="129.656" rx="13.58" ry="9.921"/>
<path d="M451.207,276.344c-0.579-1.724-1.984-3.043-3.742-3.511c-10.792-2.874-22.301,0.244-30.037,8.137  c-7.053,7.196-9.905,17.243-7.793,26.843l-16.266,14.553c-2.151-3.186-4.636-6.155-7.439-8.877  c-5.108-4.959-11.015-8.856-17.556-11.582c-6.808-2.837-14.003-4.275-21.387-4.275c-0.204,0-0.405,0.001-0.609,0.003h-80.499  v-39.669v-32.725c10.661-3.675,21.662-9.491,31.993-18.704c6.272-5.593,27.093-26.138,31.706-55.668  c1.903-12.182,0.304-25.948-4.623-39.81c-4.206-11.833-10.743-23.505-19.031-34.036c4.14-2.215,7.971-5.061,11.336-8.495l0,0  c5.846-5.964,9.929-13.38,11.809-21.445c1.882-8.077,1.483-16.498-1.155-24.352c-0.579-1.724-1.984-3.043-3.742-3.511  c-16.602-4.421-34.302,0.369-46.193,12.502c-3.842,3.92-6.922,8.466-9.116,13.412c-0.953-0.531-1.91-1.049-2.871-1.549  c-3.968-2.063-7.989-3.855-12.053-5.378v-9.031c0-5.377-4.359-9.736-9.736-9.736c-5.377,0-9.736,4.359-9.736,9.736v3.857  c-5.065-0.808-10.175-1.215-15.316-1.216c-0.001,0-0.001,0-0.001,0c-5.141,0-10.251,0.408-15.316,1.216v-3.857  c0-5.377-4.359-9.736-9.736-9.736s-9.736,4.359-9.736,9.736v9.032c-4.06,1.522-8.077,3.312-12.042,5.373  c-0.965,0.502-1.925,1.021-2.881,1.554c-2.194-4.946-5.275-9.493-9.117-13.413C148.425,19.59,130.725,14.8,114.123,19.221  c-1.757,0.468-3.163,1.787-3.742,3.511c-2.638,7.854-3.037,16.275-1.155,24.352c1.879,8.065,5.963,15.481,11.808,21.445l0,0  c3.367,3.435,7.199,6.281,11.339,8.496c-8.286,10.529-14.822,22.198-19.029,34.028c-4.93,13.864-6.531,27.632-4.63,39.816  c4.606,29.524,25.435,50.074,31.709,55.669c10.266,9.155,21.193,14.955,31.79,18.634l-0.262,42.922l-0.218,35.752  c-2.843,7.607-4.676,15.461-5.454,23.379c-0.829,8.431-0.451,16.791,1.124,24.845c1.586,8.11,4.35,15.738,8.215,22.67  c3.993,7.161,9.076,13.426,15.109,18.621c1.837,1.582,3.755,3.057,5.75,4.426v70.235c-0.085,3.925,0.614,7.758,2.08,11.397  c1.42,3.524,3.49,6.698,6.153,9.435c2.648,2.721,5.742,4.866,9.196,6.375c3.613,1.578,7.436,2.378,11.363,2.378  c0.144,0,0.29-0.001,0.434-0.003c3.888-0.059,7.663-0.901,11.22-2.502c2.128-0.958,4.116-2.158,5.942-3.588  c4.886,3.821,11.032,6.102,17.701,6.102c2.343,0,4.835-0.326,7.207-0.943c4.346-1.131,8.246-3.173,11.591-6.07  c4.009-3.472,6.985-8.056,8.607-13.255c1.079-3.46,1.345-6.439,1.377-8.328c0.001-0.062,0.002-0.125,0.002-0.187v-57.957  c5.582-0.104,11.025-0.256,16.24-0.439l-10.681,51.117c-0.008,0.04-0.016,0.08-0.024,0.119c-0.663,3.355-0.822,6.759-0.474,10.119  c0.34,3.277,1.153,6.438,2.418,9.396c2.701,6.316,7.321,11.311,13.009,14.065c3.47,1.68,7.281,2.533,11.328,2.533  c3.393,0,6.817-0.619,10.093-1.796c0.251,0.096,0.504,0.188,0.758,0.275c2.494,0.85,5.152,1.281,7.902,1.281  c3.519,0,7.059-0.694,10.522-2.063c3.365-1.33,6.491-3.234,9.291-5.659c2.921-2.53,5.368-5.527,7.273-8.908  c1.985-3.523,3.326-7.373,3.989-11.448l16.441-78.68c10.106-10.606,15.654-24.68,15.321-39.144  c-0.146-6.351-1.391-12.545-3.703-18.454l18.769-16.793c0.391-0.35,0.724-0.74,0.999-1.158c1.144,0.127,2.288,0.193,3.429,0.193  c8.199,0,16.177-3.237,22.01-9.188C452.064,298.278,454.726,286.822,451.207,276.344z M285.716,39.309  c5.03-5.132,10.304-7.297,15.067-9.192c4.45-1.771,11.637-4.006,20.991-4.259c0.052,4.609-0.442,11.928-3.611,20.182  c-2.57,6.695-5.998,11.657-8.645,14.903l0,0c-3.165,3.229-6.867,5.782-10.887,7.6c-6.233-6.641-13.136-12.581-20.457-17.618  C279.841,46.679,282.372,42.72,285.716,39.309z M128.775,60.943c-5.023-5.125-7.02-10.488-8.645-14.903  c-1.55-4.211-3.475-11.041-3.412-19.844c9.303,0.047,16.45,2.22,20.792,3.92c4.548,1.781,9.943,3.965,15.067,9.192  c3.344,3.412,5.876,7.372,7.542,11.618c-7.319,5.037-14.222,10.977-20.455,17.618C135.644,66.726,131.94,64.173,128.775,60.943z   M147.804,200.318c-5.579-5.041-24.095-23.527-28.133-49.752c-3.234-21.003,5.786-47.262,23.577-68.841  c0.308-0.373,0.618-0.746,0.931-1.116c2.537-3.003,5.186-5.845,7.931-8.52c3.316-3.23,6.774-6.214,10.35-8.944  c3.317-2.532,6.736-4.844,10.236-6.925c3.799-2.259,7.694-4.245,11.661-5.949c6.341-2.723,12.866-4.723,19.473-5.944  c5.073-0.938,10.194-1.419,15.318-1.419c5.123,0,10.244,0.481,15.316,1.419c6.607,1.222,13.132,3.221,19.473,5.943  c3.967,1.703,7.863,3.69,11.661,5.948c3.501,2.081,6.919,4.392,10.236,6.924c3.577,2.73,7.036,5.715,10.353,8.946  c2.749,2.678,5.4,5.523,7.94,8.53c0.31,0.367,0.617,0.736,0.922,1.106c17.792,21.58,26.809,47.84,23.572,68.841  c-4.044,26.234-22.553,44.714-28.13,49.753c-7.948,7.182-16.325,12.068-24.612,15.395c-3.645,1.463-7.271,2.625-10.837,3.546  c-13.659,3.53-26.417,3.545-35.792,3.545c-0.034,0-0.068,0-0.102,0c-9.42,0-22.28-0.002-36.046-3.584  c-3.559-0.926-7.179-2.092-10.816-3.559C164.041,212.334,155.711,207.462,147.804,200.318z M225.538,486.767  c-0.09,0.001-0.179,0.002-0.269,0.002c-9.937,0-18.234-8.435-17.955-18.616v-64.318c3.374,1.5,6.909,2.753,10.595,3.75  c4.502,1.218,9.145,2.039,13.873,2.456v58.79c0,5.285,1.433,10.241,3.929,14.502C232.826,485.441,229.311,486.71,225.538,486.767z   M314.685,485.243c-6.657-3.224-10.727-12.114-8.889-21.416l11.254-53.856c2.642-0.121,5.195-0.247,7.643-0.376l-10.008,47.894  c-2.293,7.803-1.817,16.063,1.354,23.318c0.904,2.068,2.004,3.995,3.268,5.751C317.68,486.372,316.118,485.938,314.685,485.243z   M391.92,351.891c0.3,13.045-5.319,25.073-14.427,33.48l-17.163,82.137c-1.451,9.433-7.888,15.856-14.717,18.206  c-1.901,0.654-3.833,0.993-5.696,0.993c-1.534,0-3.022-0.23-4.407-0.702c-1.476-0.503-2.881-1.297-4.168-2.33  c-5.724-4.591-9.132-13.914-6.147-23.509l13.002-62.224c-4.982,0.326-11.423,0.712-18.859,1.071  c-3.605,0.174-7.444,0.342-11.465,0.493c-9.064,0.342-19.052,0.601-29.36,0.664c0,22.887,0,45.773,0,68.66  c-0.02,1.175-0.265,8.4-6.244,13.579c-4.895,4.24-10.47,4.368-11.703,4.368c-3.926,0-7.567-1.279-10.53-3.438  c-3.671-2.676-6.301-6.706-7.135-11.341c-0.185-1.029-0.282-2.088-0.282-3.168v-69.394c-5.76,0.96-20.882,2.674-36.394-5.452  c-24.162-12.657-29.249-38.697-30.224-43.684c-4.171-21.348,3.518-38.441,6.556-44.405c0.158-25.874,0.316-51.749,0.473-77.623  c14.208,3.267,27.127,3.27,36.115,3.27c0.033,0,0.064,0,0.098,0c8.938,0,21.727-0.014,35.796-3.218v29.643v50.506h91.399  c0.183-0.002,0.364-0.003,0.546-0.003c16.072,0,30.26,8.558,38.209,21.21c2.202,3.505,3.926,7.323,5.078,11.361  C391.266,344.515,391.834,348.152,391.92,351.891z M439.846,297.298L439.846,297.298c-5.15,5.385-12.476,7.971-19.773,7.145  c-1.103-7.041,1.115-14.276,6.164-19.555c5.151-5.386,12.478-7.971,19.773-7.145C447.113,284.784,444.894,292.019,439.846,297.298z"/>
<path d="M263.15,111.437c0.709,0.156,5.364,1.131,9.111-2.165c2.447-2.152,3.955-5.401,3.484-8.747  c-0.461-3.274-2.668-5.973-5.502-7.478c-0.486-0.258-4.707-2.385-9.27-0.308c-0.919,0.418-4.198,2.075-5.471,5.966  c-0.175,0.535-1.211,3.884,0.554,7.414C258.09,110.189,262.213,111.23,263.15,111.437z"/>
<path d="M183.166,100.525c-0.462-3.274-2.668-5.973-5.502-7.478c-0.486-0.258-4.707-2.385-9.27-0.308  c-0.919,0.418-4.198,2.075-5.471,5.966c-0.175,0.535-1.211,3.884,0.554,7.414c2.034,4.07,6.157,5.112,7.094,5.318  c0.709,0.156,5.364,1.131,9.111-2.165C182.128,107.12,183.637,103.871,183.166,100.525z"/>
<path d="M218.564,166.302c0.195,0.006,0.388,0.009,0.583,0.009c9.402,0,17.68-6.294,20.251-15.479  c0.668-2.387-0.725-4.864-3.112-5.532c-2.389-0.673-4.865,0.724-5.533,3.112c-0.461,1.649-0.593,1.935-1.705,3.659  c-1.249,1.936-2.838,2.989-3.58,3.47c-0.971,0.629-3.356,2.175-6.656,2.098c-4.183-0.098-6.947-2.737-8.05-3.789  c-0.504-0.481-1.365-1.371-2.155-2.738c-0.402-0.696-0.736-1.514-1.066-2.698c-0.667-2.388-3.141-3.785-5.53-3.116  c-2.388,0.666-3.783,3.143-3.117,5.53C201.367,159.687,209.455,166.05,218.564,166.302z"/>
</svg>
