<svg viewBox="0 0 599.57 719.82" xmlns="http://www.w3.org/2000/svg"><g fill="#83c3a3"><path d="m436 114.4a6.91 6.91 0 0 1 -6.9-6.9 7.07 7.07 0 0 1 1.3-4 34 34 0 0 0 6.4-20.2 35.22 35.22 0 0 0 -68.7-10.9 6.9 6.9 0 0 1 -13.1-4.3 49.06 49.06 0 0 1 95.7 15.2 48.28 48.28 0 0 1 -9 28.2 7.15 7.15 0 0 1 -5.7 2.9z"/><path d="m489.9 194.4a6.91 6.91 0 0 1 -6.9-6.9 7.51 7.51 0 0 1 .5-2.6 49.77 49.77 0 0 0 3.6-18.7 51.7 51.7 0 1 0 -103.4-1.2v1.2a6.9 6.9 0 1 1 -13.8 0 65.5 65.5 0 0 1 131-1.4v1.3a63.63 63.63 0 0 1 -4.6 24 6.86 6.86 0 0 1 -6.4 4.3z"/><path d="m454.5 299.5c-2.2 0-4.5-.1-6.7-.3a6.94 6.94 0 0 1 1.4-13.8 45.78 45.78 0 0 0 5.3.3 51.67 51.67 0 0 0 31.3-92.8 6.93 6.93 0 0 1 8.3-11.1 65.54 65.54 0 0 1 -39.6 117.7z"/><path d="m429.1 444.6a6.89 6.89 0 0 1 -1.1-13.7 51.7 51.7 0 0 0 40.9-65.9 6.93 6.93 0 0 1 13.3-3.9 67 67 0 0 1 2.8 18.9 65.06 65.06 0 0 1 -54.7 64.5 5.28 5.28 0 0 1 -1.2.1z"/></g><path d="m163.6 114.4a7 7 0 0 1 -5.6-2.9 48.28 48.28 0 0 1 -9-28.2 49.07 49.07 0 0 1 95.7-15.2 6.89 6.89 0 1 1 -13 4.6c0-.1-.1-.2-.1-.3a35.27 35.27 0 0 0 -68.8 10.9 34.87 34.87 0 0 0 6.4 20.2 7 7 0 0 1 -1.6 9.7 7.54 7.54 0 0 1 -4 1.2z"/><path d="m109.7 194.4a7 7 0 0 1 -6.4-4.3 61.75 61.75 0 0 1 -4.6-24 65.5 65.5 0 0 1 131-1.4v1.3a6.9 6.9 0 0 1 -13.8 0 51.7 51.7 0 1 0 -103.4-1.2v1.2a50.67 50.67 0 0 0 3.6 18.8 6.92 6.92 0 0 1 -3.8 9 5.83 5.83 0 0 1 -2.6.6z"/><path d="m145.1 299.5a65.52 65.52 0 0 1 -39.6-117.7 6.93 6.93 0 1 1 8.3 11.1 51.65 51.65 0 0 0 31.3 92.7 47.08 47.08 0 0 0 5.3-.3 6.94 6.94 0 0 1 1.4 13.8 50.2 50.2 0 0 1 -6.7.4z"/><path d="m170.5 444.6a3.75 3.75 0 0 1 -1.1-.1 65 65 0 0 1 -54.7-64.5 63.62 63.62 0 0 1 2.8-18.9 6.93 6.93 0 0 1 13.3 3.9 54.44 54.44 0 0 0 -2.2 15 51.38 51.38 0 0 0 43.1 50.9 6.89 6.89 0 0 1 5.7 7.9 7 7 0 0 1 -6.9 5.8z"/><path d="m124.1 370a6.71 6.71 0 0 1 -2.8-.6 65.33 65.33 0 0 1 -32.7-86.4 66.68 66.68 0 0 1 8.2-13.5 6.93 6.93 0 0 1 11.1 8.3c-.1.1-.1.2-.2.2a51.45 51.45 0 0 0 19.3 78.7 7 7 0 0 1 3.5 9.1 7.19 7.19 0 0 1 -6.4 4.2z"/><path d="m475.8 370a7.19 7.19 0 0 1 -6.4-4.2 7 7 0 0 1 3.5-9.1 51.45 51.45 0 0 0 19.3-78.7c-.1 0-.1-.1-.2-.2a6.93 6.93 0 1 1 11.1-8.3 66.68 66.68 0 0 1 8.2 13.5 65.33 65.33 0 0 1 -32.7 86.4 6.71 6.71 0 0 1 -2.8.6z" fill="#83c3a3"/><path d="m393.3 359.3h-.6a6.94 6.94 0 0 1 -6.3-7.5 53.52 53.52 0 0 0 -11.2-40.8 66.63 66.63 0 0 0 -41.2-20 6.92 6.92 0 1 1 1-13.8 80.65 80.65 0 0 1 50.7 24.8 67.38 67.38 0 0 1 14.5 50.9 7 7 0 0 1 -6.9 6.4z" fill="#83c3a3"/><path d="m349.2 419.2h-.4a6.92 6.92 0 0 1 -6.6-7.2c1.1-24.4 17-69.8 68.9-68a7 7 0 1 1 -.5 13.9c-51.2-1.8-54.5 52.5-54.6 54.8a6.82 6.82 0 0 1 -6.8 6.5z" fill="#83c3a3"/><path d="m182.4 376.8a6.87 6.87 0 0 1 -6.9-6.3 66.68 66.68 0 0 1 14.5-51 80.65 80.65 0 0 1 50.7-24.8 7 7 0 0 1 7.4 6.4 6.93 6.93 0 0 1 -6.4 7.4 66.74 66.74 0 0 0 -41.3 20.1 53.87 53.87 0 0 0 -11.1 40.8 7 7 0 0 1 -6.3 7.5z"/><path d="m226.5 436.7a6.92 6.92 0 0 1 -6.9-6.6c-.1-2.3-3.5-56.8-54.6-54.8a7 7 0 1 1 -.5-13.9c51.8-1.9 67.8 43.6 68.9 68a6.86 6.86 0 0 1 -6.6 7.2z"/><path d="m431.8 431.3a7.15 7.15 0 0 0 -9.1 3.8 60.8 60.8 0 0 1 -116-25.4v-192.8h-13.8v192.8a74.63 74.63 0 0 0 142.6 30.8 7 7 0 0 0 -3.7-9.2z" fill="#83c3a3"/><path d="m299.8 86.5a6.91 6.91 0 0 0 6.9-6.9v-35.7a30.89 30.89 0 0 1 8.4-23.1l.6-.6a27.28 27.28 0 0 1 23.8-5.6 211.26 211.26 0 0 1 78.4 37.4 6.9 6.9 0 0 0 8.6-10.8 222.83 222.83 0 0 0 -84.3-40.2 41 41 0 0 0 -36.3 9.4 44.21 44.21 0 0 0 -13.1 33.5v35.7a7.07 7.07 0 0 0 7 6.9z" fill="#83c3a3"/><path d="m299.8 416.7a6.87 6.87 0 0 1 -6.9-7 57.69 57.69 0 0 0 -45.9-58.3 6.92 6.92 0 0 1 2.6-13.6c.6.1 57.5 11.8 57.1 72a6.91 6.91 0 0 1 -6.9 6.9z"/><path d="m181.7 51.9a210.52 210.52 0 0 1 78.4-37.4 27.28 27.28 0 0 1 23.8 5.6l.6.6a30.89 30.89 0 0 1 8.4 23.1v35.7a6.91 6.91 0 0 0 6.9 6.9 6.91 6.91 0 0 0 6.9-6.9v-35.6a43.85 43.85 0 0 0 -13.1-33.5 41.07 41.07 0 0 0 -36.3-9.4 222.83 222.83 0 0 0 -84.3 40.2 6.9 6.9 0 0 0 8.7 10.7z"/><path d="m299.8 396.9a6.91 6.91 0 0 0 -6.9 6.9v6a60.77 60.77 0 0 1 -116.1 25 6.94 6.94 0 0 0 -12.6 5.8 74.57 74.57 0 0 0 142.5-30.8v-6a6.91 6.91 0 0 0 -6.9-6.9z"/><path d="m295.6 200-45.6 45.6a5.51 5.51 0 0 0 -1.6 4 6 6 0 0 0 1.6 4l3.4 3.4a5.55 5.55 0 0 0 7.9 0l38.3-38.3 38.3 38.3a5.51 5.51 0 0 0 4 1.6 6 6 0 0 0 4-1.6l3.4-3.4a5.51 5.51 0 0 0 1.6-4 6 6 0 0 0 -1.6-4l-45.6-45.6a5.51 5.51 0 0 0 -4-1.6 5.08 5.08 0 0 0 -4.1 1.6z" fill="#83c3a3"/><text fill="#83c3a3" font-family="FuzzyBubbles-Regular, Fuzzy Bubbles" font-size="113" transform="translate(0 624.25)">Mind<tspan fill="#000" font-family="FuzzyBubbles-Bold, Fuzzy Bubbles" font-weight="700" x="270.86" y="0">Merge</tspan></text><text font-family="BalooBhaina-Regular, Baloo Bhaina" font-size="36" letter-spacing=".2em" transform="translate(115.05 690.04)">T<tspan letter-spacing=".21em" x="27.04" y="0">E</tspan><tspan x="54.25" y="0">AM </tspan><tspan letter-spacing=".19em" x="133.77" y="0">3</tspan><tspan letter-spacing=".19em" x="159.26" y="0">7 + KEVIN</tspan></text><rect fill="#83c3a3" height="5" rx="2.5" width="95" x="6" y="675.25"/><rect fill="#83c3a3" height="5" rx="2.5" width="95" x="499" y="675.25"/></svg>