<svg id="Layer_1" data-name="Layer 1" xmlns="http://www.w3.org/2000/svg" viewBox="0 0 440.37 484.4"><defs><style>.cls-1{fill:#83c3a3;}</style></defs><path class="cls-1" d="M356.4,114.4a6.91,6.91,0,0,1-6.9-6.9,7.07,7.07,0,0,1,1.3-4,34,34,0,0,0,6.4-20.2,35.22,35.22,0,0,0-68.7-10.9,6.9,6.9,0,0,1-13.1-4.3,49.06,49.06,0,0,1,95.7,15.2,48.28,48.28,0,0,1-9,28.2A7.15,7.15,0,0,1,356.4,114.4Z"/><path class="cls-1" d="M410.3,194.4a6.91,6.91,0,0,1-6.9-6.9,7.51,7.51,0,0,1,.5-2.6,49.77,49.77,0,0,0,3.6-18.7A51.7,51.7,0,1,0,304.1,165v1.2a6.9,6.9,0,0,1-13.8,0,65.5,65.5,0,0,1,131-1.4v1.3a63.63,63.63,0,0,1-4.6,24A6.86,6.86,0,0,1,410.3,194.4Z"/><path class="cls-1" d="M374.9,299.5c-2.2,0-4.5-.1-6.7-.3a6.94,6.94,0,0,1,1.4-13.8h0a45.78,45.78,0,0,0,5.3.3,51.67,51.67,0,0,0,31.3-92.8,6.93,6.93,0,0,1,8.3-11.1,65.54,65.54,0,0,1-39.6,117.7Z"/><path class="cls-1" d="M349.5,444.6a6.89,6.89,0,0,1-1.1-13.7A51.7,51.7,0,0,0,389.3,365a6.93,6.93,0,0,1,13.3-3.9,67,67,0,0,1,2.8,18.9,65.06,65.06,0,0,1-54.7,64.5A5.28,5.28,0,0,1,349.5,444.6Z"/><path d="M84,114.4a7,7,0,0,1-5.6-2.9,48.28,48.28,0,0,1-9-28.2,49.07,49.07,0,0,1,95.7-15.2,6.89,6.89,0,1,1-13,4.6c0-.1-.1-.2-.1-.3A35.27,35.27,0,0,0,83.2,83.3a34.87,34.87,0,0,0,6.4,20.2,7,7,0,0,1-1.6,9.7,7.54,7.54,0,0,1-4,1.2Z"/><path d="M30.1,194.4a7,7,0,0,1-6.4-4.3,61.75,61.75,0,0,1-4.6-24,65.5,65.5,0,0,1,131-1.4V166a6.9,6.9,0,0,1-13.8,0,51.7,51.7,0,0,0-103.4-1.2V166a50.67,50.67,0,0,0,3.6,18.8,6.92,6.92,0,0,1-3.8,9A5.83,5.83,0,0,1,30.1,194.4Z"/><path d="M65.5,299.5A65.52,65.52,0,0,1,25.9,181.8a6.93,6.93,0,1,1,8.3,11.1,51.65,51.65,0,0,0,31.3,92.7,47.08,47.08,0,0,0,5.3-.3,6.94,6.94,0,0,1,1.4,13.8A50.2,50.2,0,0,1,65.5,299.5Z"/><path d="M90.9,444.6a3.75,3.75,0,0,1-1.1-.1A65,65,0,0,1,35.1,380a63.62,63.62,0,0,1,2.8-18.9A6.93,6.93,0,0,1,51.2,365,54.44,54.44,0,0,0,49,380a51.38,51.38,0,0,0,43.1,50.9,6.89,6.89,0,0,1,5.7,7.9,7,7,0,0,1-6.9,5.8Z"/><path d="M44.5,370a6.71,6.71,0,0,1-2.8-.6A65.33,65.33,0,0,1,9,283a66.68,66.68,0,0,1,8.2-13.5,6.93,6.93,0,0,1,11.1,8.3c-.1.1-.1.2-.2.2a51.45,51.45,0,0,0,19.3,78.7,7,7,0,0,1,3.5,9.1,7.19,7.19,0,0,1-6.4,4.2Z"/><path class="cls-1" d="M396.2,370a7.19,7.19,0,0,1-6.4-4.2,7,7,0,0,1,3.5-9.1A51.45,51.45,0,0,0,412.6,278c-.1,0-.1-.1-.2-.2a6.93,6.93,0,1,1,11.1-8.3,66.68,66.68,0,0,1,8.2,13.5A65.33,65.33,0,0,1,399,369.4a6.71,6.71,0,0,1-2.8.6Z"/><path class="cls-1" d="M313.7,359.3h-.6a6.94,6.94,0,0,1-6.3-7.5A53.52,53.52,0,0,0,295.6,311a66.63,66.63,0,0,0-41.2-20,6.92,6.92,0,0,1,1-13.8A80.65,80.65,0,0,1,306.1,302a67.38,67.38,0,0,1,14.5,50.9A7,7,0,0,1,313.7,359.3Z"/><path class="cls-1" d="M269.6,419.2h-.4a6.92,6.92,0,0,1-6.6-7.2h0c1.1-24.4,17-69.8,68.9-68a7,7,0,1,1-.5,13.9h0c-51.2-1.8-54.5,52.5-54.6,54.8A6.82,6.82,0,0,1,269.6,419.2Z"/><path d="M102.8,376.8a6.87,6.87,0,0,1-6.9-6.3,66.68,66.68,0,0,1,14.5-51,80.65,80.65,0,0,1,50.7-24.8,7,7,0,0,1,7.4,6.4,6.93,6.93,0,0,1-6.4,7.4h0a66.74,66.74,0,0,0-41.3,20.1,53.87,53.87,0,0,0-11.1,40.8,7,7,0,0,1-6.3,7.5Z"/><path d="M146.9,436.7a6.92,6.92,0,0,1-6.9-6.6h0c-.1-2.3-3.5-56.8-54.6-54.8a7,7,0,0,1-.5-13.9c51.8-1.9,67.8,43.6,68.9,68a6.86,6.86,0,0,1-6.6,7.2h0Z"/><path class="cls-1" d="M352.2,431.3a7.15,7.15,0,0,0-9.1,3.8,60.8,60.8,0,0,1-116-25.4V216.9H213.3V409.7a74.63,74.63,0,0,0,142.6,30.8A7,7,0,0,0,352.2,431.3Z"/><path class="cls-1" d="M220.2,86.5h0a6.91,6.91,0,0,0,6.9-6.9V43.9a30.89,30.89,0,0,1,8.4-23.1l.6-.6a27.28,27.28,0,0,1,23.8-5.6A211.26,211.26,0,0,1,338.3,52a6.9,6.9,0,0,0,8.6-10.8A222.83,222.83,0,0,0,262.6,1a41,41,0,0,0-36.3,9.4,44.21,44.21,0,0,0-13.1,33.5V79.6A7.07,7.07,0,0,0,220.2,86.5Z"/><path d="M220.2,416.7h0a6.87,6.87,0,0,1-6.9-7h0a57.69,57.69,0,0,0-45.9-58.3,6.92,6.92,0,1,1,2.6-13.6c.6.1,57.5,11.8,57.1,72A6.91,6.91,0,0,1,220.2,416.7Z"/><path d="M102.1,51.9a210.52,210.52,0,0,1,78.4-37.4,27.28,27.28,0,0,1,23.8,5.6l.6.6a30.89,30.89,0,0,1,8.4,23.1V79.5a6.91,6.91,0,0,0,6.9,6.9h0a6.91,6.91,0,0,0,6.9-6.9V43.9A43.85,43.85,0,0,0,214,10.4,41.07,41.07,0,0,0,177.7,1,222.83,222.83,0,0,0,93.4,41.2a6.9,6.9,0,0,0,8.7,10.7Z"/><path d="M220.2,396.9a6.91,6.91,0,0,0-6.9,6.9v6a60.77,60.77,0,0,1-116.1,25,6.94,6.94,0,0,0-12.6,5.8,74.57,74.57,0,0,0,142.5-30.8v-6a6.91,6.91,0,0,0-6.9-6.9Z"/><path class="cls-1" d="M216,200l-45.6,45.6a5.51,5.51,0,0,0-1.6,4,6,6,0,0,0,1.6,4l3.4,3.4a5.55,5.55,0,0,0,7.9,0L220,218.7,258.3,257a5.51,5.51,0,0,0,4,1.6,6,6,0,0,0,4-1.6l3.4-3.4a5.51,5.51,0,0,0,1.6-4,6,6,0,0,0-1.6-4L224.1,200a5.51,5.51,0,0,0-4-1.6A5.08,5.08,0,0,0,216,200Z"/></svg>