<svg id="Слой_1" enable-background="new 0 0 2000 2000" height="512" viewBox="0 0 2000 2000" width="512" xmlns="http://www.w3.org/2000/svg"><path d="m552.696 1762.973c-27.411 41.785-60.856 80.739-103.608 106.617-42.751 25.878-95.845 37.479-143.738 23.208s-88.081-57.458-91.04-107.344c-1.874-31.591 10.614-62.695 28.828-88.574s41.937-47.299 65.448-68.483c-5.556-11.592-28.002-61.739-7.089-115.807 4.559-11.786 20.915-56.78 62.214-67.739 22.048-5.85 45.623-.994 66.916 7.186 64.026 24.595 115.132 80.555 133.833 146.544z" fill="#ff5730"/><path d="m605.058 1587.447c-15.614-36.799-3.721-81.867 24.069-110.602s68.945-42.139 108.918-41.763c39.973.377 78.936 13.41 114.711 31.247l5.91-18.471c-29.735-28.035-60.92-58.533-69.865-98.409-8.581-38.251 6.931-80.844 38.101-104.619 31.17-23.774 76.349-27.471 110.97-9.082 49.905 94.571 36.946 209.913-31.942 288.837-73.625 84.35-196.638 110.502-300.872 62.862z" fill="#ff5730"/><path d="m1682.593 502.254c38.621 42.467 101.1 122.722 134.31 239.872 37.027 130.615 18.125 238.144 4.289 311.948-28.599 152.555-93.857 258.382-138.696 329.592-47.979 76.198-97.13 133.83-134.568 173.291-71.517 75.383-161.532 170.264-306.734 227.367-157.962 62.121-300.187 47.659-409.441 36.55-103.71-10.546-188.227-33.557-246.983-53.182l-27.437-8.822c-31.591-12.669-53.533-46.244-52.454-80.263 1.079-34.02 25.106-66.136 57.437-76.776 33.552-5.929 80.261-16.968 132.957-39.029 26.468-11.081 65.878-27.579 103.24-55.38 24.045-17.891 114.158-84.945 131.076-200.314 20.351-138.777-80.917-240.344-92.637-251.723z" fill="#ffa28c"/><path d="m935.642 1390.758c30.427 121.512 147.926 176.298 261.949 195.165 63.963 10.584 132.647 16.568 197.396 11.799 29.838-2.198 60.283-8.327 87.442-21.26 10.601-5.048 20.109-11.465 29.358-18.21 75.846-80.342 141.633-168.118 195.326-265.602 39.058-70.913 68.934-148.544 86.719-228.591-8.791 19.222-18.728 37.921-29.779 55.882-80.698 131.159-216.958 222.639-368.674 248.551-81.086 13.849-165.189 11.063-245.149-8.431-70.522-17.193-133.434-45.514-189.94-88.985-.218 16.811-1.768 33.449-4.522 49.432-4.002 23.229-11.839 45.843-22.336 67.331 1.018.541 1.85 1.479 2.21 2.919z" fill="#ff8c70"/><path d="m586.386 1761.836c81.568 20.797 163.829 34.25 247.825 40.033 11.235.773 22.496 1.508 33.772 2.185-28.368-18.5-53.389-43-70.943-65.26-23.229-29.456-40.48-62.683-49.971-99.041-5.159-19.764-13.063-52.347-4.65-75.031-55.16 24.384-120.631 46.91-180.101 41.786-1.858-.16-3.396-1.501-4.171-3.11-30.195 11.935-52.234 42.676-53.266 75.208-1.079 34.02 20.862 67.595 52.454 80.263l21.872 7.032c.697-2.832 3.265-5.063 7.179-4.065z" fill="#ff8466"/><path d="m1477.149 140.957c-70.432-33.439-160.91-17.053-219.259 33.06-26.64 22.879-45.288 54.255-51.876 88.828-3.919 20.568-3.773 44.714 3.57 64.5.186.502 3.64 7.618 7.882 14.274-1.944 2.888-3.173 6.278-3.358 9.698-3.515 64.948 108.106 79.069 156.924 83.663 66.489 6.257 147.218-6.617 181.145-71.876 39.674-76.313 2.544-185.318-75.028-222.147z" fill="#ff5730"/><path d="m1755.964 368.388c-30-27.589-68.444-43.072-109.138-44.608-35.868-1.354-69.405 12.638-95.821 36.098-4.642-2.545-10.436-3.005-15.865.116-8.621 4.957-17.006 6.381-24.08 14.098-6.782 7.399-11.573 16.801-15.655 25.87-7.582 16.85-11.944 34.007-14.076 52.327-2.613 22.457-1.211 45.291 3.454 67.405 14.477 68.623 67.633 120.567 136.828 132.617 70.919 12.351 148.545-15.333 179.717-83.976 30.274-66.661 7.689-151.158-45.364-199.947z" fill="#ff5730"/><path d="m1713.639 918.824c-94.579 180.939-294.312 301.793-498.479 301.619s-403.693-121.368-497.964-302.469l-16.953-53.473c-43.206-134.329 3.146-288.122 99.571-391.141 96.426-103.019 236.352-158.479 376.853-171.532 163.956-15.232 338.749 28.117 457.005 142.699 28.955 28.056 99.444 103.416 119.385 223.26 13.019 78.244-1.234 143.199-12.353 179.841z" fill="#ffb9a8"/><path d="m1284.121 345.113c-24.221-12.03-58.25-9.125-84.796-8.451-30.653.779-61.276 4.072-91.458 9.451-53.574 9.549-122.156 25.713-160.857 66.911-3.711 3.951-1.445 12.59 4.911 11.856 25.811-2.981 50.205-12.5 74.914-20.077 27.589-8.46 55.929-15.553 84.32-20.719 27.964-5.089 56.285-7.825 84.698-8.481 13.899-.321 27.795-.082 41.686.459 14.294.557 28.589 3.281 42.567-.217 13.458-3.368 17.093-24.237 4.015-30.732z" fill="#ffd0c4"/><path d="m1484.001 385.052c-17.307-12.605-39.854-20.054-60.321-25.829-17.906-5.052-40.092-11.701-56.919-1.004-6.067 3.857-7.187 11.95-2.219 17.223 12.51 13.279 32.608 14.357 49.309 19.435 19.594 5.957 37.277 15.761 56.346 22.919 20.411 7.662 28.946-21.715 13.804-32.744z" fill="#ffd0c4"/><path d="m1428.315 188.487c-22.606-8.803-46.507-9.034-65.275 7.26-1.46 1.268-.796 4.27 1.21 4.582 17.772 2.767 37.144 5.372 53.574 13 16.523 7.671 25.994 25.225 43.117 30.683 4.111 1.311 10.127-1.553 10.792-6.127 3.594-24.749-23.141-41.502-43.418-49.398z" fill="#ff9880"/><path d="m1727.358 424.309c-11.292-13.871-25.394-24.023-43.692-23.952-3.287.013-5.115 4.212-2.714 6.552 11.264 10.98 21.427 23.204 28.236 37.473 7.329 15.357 10.03 33.554 24.1 44.135 5.462 4.108 13.732-.32 15.303-6.226 5.171-19.428-9.354-43.389-21.233-57.982z" fill="#ff9880"/><g fill="#ff8b70"><path d="m452.638 1501.656c-22.649-13.738-58.198-30.419-84.208-19.68-4.486 1.852-8.318 8.646-3.307 12.524 20.078 15.538 46.913 19.538 68.786 33.378 12.184 7.709 23.299 16.331 33.321 26.752 8.918 9.273 14.496 18.492 26.618 23.583 7.537 3.165 16.624-4.789 16.195-12.337-1.535-26.983-36.1-51.297-57.405-64.22z"/><path d="m747.497 1479.965c-18.093-5.287-36.692-6.216-55.17-2.206-7.864 1.707-16.379 4.3-23.489 8.211-9.518 5.235-13.807 13.338-21.099 20.927-3.325 3.461 1.064 9.8 5.315 6.889 10.65-7.292 29.514-12.385 42.148-15.128 15.769-3.424 31.087-2.074 46.367 2.809 13.667 4.366 19.721-17.471 5.928-21.502z"/><path d="m881.79 1267.934c.56 2.237.344 1.974-.649-.788-.84-1.419-1.969-2.547-3.387-3.386-2.177-1.481-5.269-2.497-7.818-3.125-5.511-1.358-12.216-1.108-17.676.27-13.027 3.287-21.589 13.165-25.088 25.772-1.104 3.978-.07 9.067 3.139 11.876 10.404 9.107 19.24-2.312 27.301-8.504 3.077-2.364 6.53-4.721 10.065-6.385 1.886-.888 4.012-1.447 5.982-2.143 1.017-.36 7.798-2.895 5.147-2.284 4.675-1.077 6.899-8.071 2.984-11.303z"/><path d="m462.485 1723.735c-10.106-5.862-19.897-5.585-31.32-6.431-14.122-1.045-27.997-3.527-41.553-7.678-20.675-6.331-44.118-26.568-66.213-24.436-2.307.223-4.46 1.829-4.386 4.386.761 26.428 35.059 41.581 55.866 49.968 23.299 9.392 65.325 22.861 87.607 5.654 7.091-5.477 8.861-16.323-.001-21.463z"/></g><ellipse cx="1632.116" cy="763.241" fill="#ff8c70" rx="58.766" ry="34.661"/><ellipse cx="808.148" cy="752.721" fill="#ff8c70" rx="58.766" ry="34.661"/><path d="m1182.976 791.897.004.002c4.577.794 9.199 1.177 13.829 1.177 47.896 0 96.774-40.994 107.188-93.039 2.814-14.065-4.302-27.712-16.925-32.446-11.8-4.424-24.628.516-31.215 12.005-1.911 3.337-3.305 6.317-4.729 10.126-16.563 33.848-36.648 50.036-59.448 48.185-12.478-1.019-25.069-9.35-34.554-22.857-4.649-6.62-7.383-13.745-10.052-22.408-2.007-6.496-4.162-10.819-6.245-15.002-.781-1.561-1.595-3.189-2.452-5.058-2.17-4.727-6.751-7.967-11.948-8.457-5.144-.465-10.189 1.822-13.14 5.972-7.733 10.793-11.21 18.617-10.033 33.897 1.378 17.943 9.591 33.754 14.37 41.587 14.945 24.497 39.378 41.81 65.35 46.316z"/><path d="m270.368 1900.017c103.27 53.623 244.381-21.912 283.107-125.785 2.575-.085 5.134-.594 7.646-1.626 6.702-2.757 12.785-9.566 9.949-17.522-5.263-14.764-19.111-17.742-29.324-28.646-10.665-11.386-17.949-26.816-19.075-42.465-.075-1.04-.051-2.053-.075-3.078.743-2.402.836-5.019.239-7.414 2.516-26.647 21.55-48.373 40.788-65.946 1.576.134 3.152-.1 4.602-.686 1.941.109 3.875.253 5.827.306 1.327.036 2.665 0 3.996.012 2.617.021 5.234.042 7.867-.03 1.601-.044 3.21-.15 4.816-.227 2.377-.114 4.753-.226 7.139-.41 1.728-.133 3.461-.317 5.193-.485 2.275-.222 4.55-.447 6.83-.728 1.807-.222 3.614-.481 5.423-.738 2.207-.315 4.415-.64 6.625-1.005 1.868-.308 3.733-.641 5.601-.984 2.084-.383 4.166-.78 6.249-1.203.062-.013.125-.027.187-.04 1.925-.392 3.847-.799 5.771-1.224 2.072-.459 4.142-.94 6.211-1.436.328-.078.657-.148.984-.228 1.657-.401 3.311-.811 4.965-1.235 1.98-.507 3.954-1.041 5.929-1.578 2.058-.56 4.114-1.118 6.165-1.708 1.837-.529 3.665-1.086 5.495-1.639 2.177-.657 4.354-1.307 6.521-1.994 1.569-.498 3.126-1.023 4.69-1.536 2.41-.791 4.821-1.574 7.215-2.399.882-.304 1.753-.625 2.633-.933 17.924-6.273 35.351-13.383 51.861-20.682-4.137 11.154-4.319 24.701-2.831 37.941.483 4.3 1.145 8.554 1.904 12.695 1.658 9.043 3.779 17.505 5.577 24.394 9.491 36.359 26.742 69.585 49.971 99.041 17.548 22.253 42.558 46.743 70.915 65.241-1.14-.068-2.281-.135-3.421-.204-10.092-.617-20.176-1.264-30.235-1.956-.029-.002-.059-.004-.089-.006-19.91-1.371-39.716-3.206-59.445-5.434-11.483-1.297-22.944-2.705-34.373-4.29-12.944-1.795-25.855-3.775-38.737-5.938-12.882-2.162-25.736-4.508-38.564-7.035-6.414-1.264-12.823-2.573-19.224-3.927-19.207-4.064-38.363-8.534-57.48-13.408-.033-.009-.062-.008-.095-.016-.452-.109-.89-.185-1.305-.212-.137-.009-.258.013-.39.012-.3-.001-.603-.009-.88.03-.096.013-.178.05-.271.068-.297.057-.592.117-.861.217-.071.027-.13.07-.2.099-.275.116-.546.238-.79.396-.03.02-.054.048-.084.068-.27.182-.526.382-.754.608-.014.014-.024.031-.038.045-1.732 1.755-2.218 4.674-1.108 7.082.002.003.005.007.007.011.318.686.763 1.331 1.349 1.892.003.003.007.005.01.008.587.563 1.312 1.044 2.183 1.403h.001c46.746 19.254 94.957 34.643 144.044 46.56 7.013 1.702 14.043 3.333 21.089 4.895 18.79 4.165 37.696 7.832 56.685 11.026 35.599 5.987 71.618 11.092 107.769 14.363 13.556 1.227 27.131 2.196 40.709 2.858 9.052.441 18.106.745 27.156.897 4.525.076 9.05.114 13.573.113 9.046-.004 18.087-.166 27.118-.502 5.263-.196 10.512-.45 15.747-.762 10.47-.625 20.883-1.479 31.235-2.563 15.528-1.624 30.919-3.761 46.162-6.399 9.106-1.576 18.151-3.357 27.148-5.288 2.204-.473 4.403-.958 6.599-1.452 7.578-1.704 15.115-3.535 22.611-5.488 12.781-3.331 25.439-7.025 37.97-11.069 6.416-2.07 12.797-4.233 19.144-6.487 6.49-2.305 12.957-4.669 19.373-7.164 4.748-1.846 9.475-3.744 14.181-5.693 9.412-3.898 18.741-8.003 27.982-12.308 13.862-6.459 27.526-13.372 40.983-20.729 31.398-17.164 61.661-36.74 90.635-58.579 4.139-3.12 8.252-6.286 12.339-9.498 8.172-6.423 16.238-13.031 24.193-19.817 3.977-3.394 7.927-6.832 11.849-10.314 59.028-52.418 114.258-110.189 163.635-172.491 7.825-9.873 15.446-19.898 22.968-29.995 24.126-32.381 46.712-65.859 67.377-100.404 4.518-7.553 8.947-15.155 13.284-22.805 8.674-15.3 16.98-30.792 24.896-46.466 3.958-7.838 7.818-15.721 11.578-23.649 10.21-21.527 19.613-43.408 28.286-65.571 1.768-4.516 3.502-9.043 5.203-13.585 29.908-79.869 49.501-163.589 56.052-250.166 3.066-40.515 1.877-82.351-3.544-124.06-.678-5.214-1.422-10.425-2.231-15.632-4.049-26.034-9.75-51.948-17.098-77.387-1.469-5.088-3.005-10.157-4.606-15.204-6.405-20.189-13.863-40.029-22.371-59.34-4.254-9.656-8.771-19.179-13.549-28.547s-9.82-18.582-15.123-27.617c-.069-.117-.143-.231-.212-.349 6.729-8.568 12.577-18.073 17.331-28.545 30.272-66.661 7.688-151.158-45.365-199.947-30-27.589-68.443-43.072-109.138-44.608-33.807-1.276-65.539 11.09-91.193 32.158 33.882-75.815-3.309-179.29-78.484-214.981-70.432-33.439-160.91-17.053-219.259 33.06-26.64 22.879-45.287 54.255-51.876 88.828-.822 4.313-1.416 8.803-1.852 13.357-168.196 7.891-335.755 75.377-438.987 204.628-43.03 53.876-76.108 117.799-88.725 185.948-6.386 34.493-8.434 69.781-5.407 104.75 2.957 34.166 12.923 63.299 26.288 94.678 1.573 3.694 6.884.922 6.166-2.6-5.833-28.629-6.392-59.925-6.115-89.132.277-29.272 4.389-58.076 11.342-86.483 13.569-55.439 36.865-108.59 69.826-155.237 68.061-96.327 176.718-158.725 289.037-188.776 44.915-12.017 92.343-19.348 140.408-21.623 8.057-.382 16.132-.588 24.217-.682 84.869-.977 170.742 14.006 247.484 47.444 8.73 3.804 17.312 7.896 25.79 12.181 14.704 7.43 29.017 15.561 42.84 24.464 40.03 25.78 76.075 57.763 106.172 96.504 23.216 29.884 41.032 62.155 53.745 95.932 5.47 14.531 10.015 29.335 13.604 44.358 15.346 64.234 13.684 132.333-3.481 198.917-7.503 29.105 35.128 40.368 44.677 12.317 15.087-44.316 21.249-90.944 19.393-137.302.742 2.165 1.454 4.338 2.169 6.512.771 2.345 1.54 4.69 2.279 7.045.732 2.333 1.436 4.673 2.137 7.016.674 2.253 1.34 4.508 1.984 6.769.695 2.441 1.369 4.887 2.031 7.336.583 2.163 1.155 4.33 1.712 6.5.657 2.556 1.297 5.115 1.917 7.68.497 2.057.976 4.118 1.449 6.18.616 2.682 1.22 5.364 1.795 8.055.414 1.935.805 3.875 1.198 5.815.571 2.817 1.136 5.635 1.664 8.461.331 1.778.637 3.56.951 5.341.53 2.998 1.057 5.996 1.538 9.003.241 1.509.454 3.022.683 4.534.498 3.284.993 6.568 1.433 9.861.129.964.234 1.931.358 2.897 2.261 17.643 3.718 35.399 4.325 53.204 0 .01 0 .018.001.028-2.506.539-4.717 2.083-5.93 4.94-13.41 31.572-19.464 64.837-28.747 97.841-9.016 32.057-21.527 62.889-37.257 92.233-32.539 60.702-77.7 114.522-131.027 158.042-116.649 95.197-272.629 127.179-419.557 101.903-74.242-12.772-148.067-38.551-216.602-71.212-3.87-10.735-8.151-25.324-15.383-35.893-.4-2.9-.861-5.786-1.353-8.67-.2-1.176-.394-2.352-.61-3.524-.368-2-.757-3.992-1.17-5.98-.345-1.657-.72-3.305-1.097-4.953-.585-2.559-1.204-5.103-1.867-7.637-.532-2.033-1.076-4.063-1.659-6.078-.426-1.471-.863-2.937-1.316-4.397-.801-2.581-1.641-5.146-2.529-7.69-.4-1.148-.807-2.291-1.225-3.431-.999-2.72-2.049-5.417-3.152-8.09-.432-1.048-.871-2.092-1.319-3.133-.627-1.456-1.271-2.904-1.93-4.345 44.362 25.463 92.129 45.276 141.272 57.605 164.019 41.148 339.828 4.257 476.932-93.823 38.084-27.245 73.33-58.416 104.099-93.754 27.862-32 68.092-75.707 67.579-120.518-.115-9.996-11.848-17.906-20.825-11.95-31.654 20.998-49.396 60.715-73.48 89.649-24.349 29.253-51.706 56.073-81.426 79.851-60.696 48.561-132.166 84.092-207.344 103.63-151.266 39.313-311.164 4.785-440.253-80.911-36.957-24.534-70.026-53.123-101.186-84.63-30.529-30.869-55.504-66.037-82.046-100.209-3.286-4.231-10.313.374-8.797 5.12 23.897 74.782 80.126 140.292 139.762 190.155 1.304 2.48 2.606 4.961 3.87 7.46 1.622 3.206 3.21 6.426 4.762 9.662s3.069 6.485 4.547 9.748c1.478 3.264 2.919 6.54 4.32 9.829 2.574 6.042 5.084 12.141 7.499 18.292 1.207 3.076 2.391 6.165 3.547 9.266 1.313 3.521 2.577 7.063 3.812 10.615.548 1.58 1.068 3.169 1.599 4.754.642 1.912 1.279 3.825 1.894 5.745.643 2.01 1.262 4.026 1.874 6.046.455 1.497.9 2.997 1.337 4.499.635 2.187 1.256 4.376 1.851 6.572.128.47.244.942.369 1.412-.351-.012-.725-.042-1.072-.051-36.565-.983-73.394 14.44-97.14 42.43-25.584 30.157-36.121 71.34-27.566 110.007 6.054 27.367 21.417 50.619 39.789 71.432-51.234-15.328-105.549-17.356-154.531 9.901-45.433 25.282-87.277 95.997-54.771 145.45-2.672.985-5.336 1.986-7.996 2.998-5.432 2.066-10.83 4.213-16.189 6.456 1.856-42.545-37.006-90.521-66.1-115.746-39.362-34.128-99.389-66.629-152.835-50.705-38.426 11.449-61.364 45.324-75.112 80.927-10.346 26.791-12.052 55.601-7.341 83.786 1.798 10.758 4.272 23.613 8.986 34.886-43.931 34.424-82.359 87.134-87.714 142.065-5.347 54.876 27.746 108.326 76.061 133.413zm1240.85-1566.245c-13.127-6.174-26.485-11.897-40.078-17.064-72.012-27.373-151.965-41.211-232.77-41.3 1.279-3.952 2.658-7.868 4.079-11.742 7.721-21.049 20.518-39.477 37.629-54.055 43.25-36.847 113.009-51.521 166.398-30.194 55.509 22.174 89.635 98.688 64.742 154.355zm255.995 198.352c-2.379 8.703-5.764 16.672-9.984 23.904-2.619-3.6-5.261-7.181-7.975-10.701-9.523-12.352-19.634-24.202-30.331-35.475-1.765-1.861-3.596-3.656-5.393-5.485-37.559-56.514-87.161-102.886-143.936-138.648 45.811-18.299 106.39-8.272 144.268 20.681 42.459 32.455 67.695 93.246 53.351 145.724zm-833.774 855.703c1.255-2.569 2.467-5.154 3.642-7.755.13-.288.258-.577.387-.866 3.23-7.211 6.143-14.536 8.709-21.962.32-.922.659-1.837.967-2.762.003-.008.006-.017.009-.025.557-1.676 1.072-3.362 1.593-5.047.512-1.651 1.015-3.304 1.491-4.963.417-1.458.82-2.918 1.208-4.382.545-2.048 1.052-4.105 1.54-6.164.277-1.171.567-2.338.825-3.513.722-3.278 1.389-6.567 1.958-9.872.001-.003.002-.006.002-.009.685-3.974 1.292-7.989 1.828-12.036.05-.378.082-.764.13-1.144.479-3.716.904-7.454 1.254-11.22.002-.022.003-.044.005-.066.762-8.239 1.197-16.58 1.306-24.966 6.472 4.979 13.039 9.735 19.681 14.323 51.347 35.465 107.815 59.438 170.259 74.661 79.96 19.494 164.063 22.28 245.149 8.431 151.715-25.913 287.976-117.392 368.674-248.551 10.984-17.854 20.863-36.437 29.615-55.539-1.021 4.584-2.006 9.175-3.105 13.742-.231.959-.472 1.917-.706 2.877-.923 3.775-1.87 7.544-2.846 11.306-.303 1.167-.61 2.335-.918 3.501-.962 3.641-1.949 7.277-2.96 10.906-.311 1.118-.619 2.236-.935 3.352-1.123 3.967-2.277 7.925-3.457 11.874-.208.697-.408 1.397-.619 2.093-2.853 9.458-5.871 18.863-9.048 28.212-.295.868-.602 1.731-.899 2.599-1.265 3.682-2.55 7.356-3.864 11.019-.463 1.29-.933 2.576-1.402 3.864-1.192 3.275-2.402 6.542-3.633 9.801-.522 1.382-1.045 2.764-1.574 4.144-1.253 3.267-2.529 6.523-3.82 9.774-.5 1.259-.994 2.521-1.5 3.777-1.529 3.796-3.087 7.577-4.667 11.347-.276.66-.544 1.324-.822 1.983-1.892 4.483-3.821 8.947-5.785 13.393-.353.801-.72 1.594-1.076 2.393-1.577 3.542-3.173 7.074-4.795 10.591-.662 1.434-1.337 2.86-2.006 4.291-1.356 2.897-2.722 5.788-4.108 8.667-.755 1.568-1.516 3.133-2.28 4.696-1.357 2.778-2.73 5.547-4.115 8.307-.771 1.535-1.54 3.073-2.319 4.603-1.487 2.921-2.997 5.828-4.514 8.729-.688 1.314-1.366 2.634-2.06 3.944-2.212 4.176-4.449 8.334-6.724 12.464-.049.088-.098.173-.147.26-3.624 6.577-7.314 13.101-11.048 19.591-1.301 2.261-2.631 4.498-3.945 6.748-2.508 4.295-5.027 8.581-7.582 12.838-1.603 2.67-3.226 5.324-4.848 7.98-2.311 3.785-4.638 7.556-6.987 11.311-1.777 2.84-3.563 5.676-5.362 8.5-2.227 3.497-4.479 6.975-6.739 10.447-1.927 2.958-3.848 5.92-5.797 8.859-2.136 3.221-4.306 6.415-6.47 9.613-2.1 3.103-4.182 6.22-6.308 9.302-1.438 2.086-2.911 4.144-4.362 6.22-5.412 7.745-10.902 15.428-16.478 23.045-1.274 1.74-2.532 3.492-3.815 5.226-3.025 4.087-6.09 8.143-9.161 12.195-1.309 1.727-2.612 3.457-3.929 5.177-3.192 4.166-6.412 8.31-9.653 12.438-1.137 1.447-2.276 2.892-3.418 4.335-3.472 4.384-6.965 8.754-10.494 13.095-.7.862-1.406 1.717-2.109 2.577-4.929 6.035-9.923 12.021-14.958 17.975-1.189 1.407-2.393 2.803-3.588 4.206-4.073 4.779-8.174 9.536-12.315 14.263-1.082 1.236-2.166 2.472-3.253 3.705-5.066 5.743-10.167 11.458-15.332 17.127-.007.007-.013.014-.02.022-5.676 6.227-11.412 12.411-17.207 18.55-9.249 6.746-18.756 13.162-29.358 18.21-27.16 12.933-57.605 19.062-87.442 21.26-64.749 4.77-133.433-1.215-197.396-11.799-90.219-14.928-182.57-52.382-232.288-127.544-9.21-13.923-16.997-29.106-22.993-45.717-2.544-7.049-4.776-14.347-6.668-21.904-.361-1.44-1.192-2.378-2.208-2.919 0-.007.001-.011.003-.014zm-7.457 14.31c.001-.002.002-.004.004-.006.293 15.472 2.701 30.363 6.826 44.62 4.17 14.41 10.135 28.153 17.547 41.157 30.046 52.713 83.908 93.213 139.115 115.922 54.422 22.387 112.402 31.03 170.677 36.329 54.788 4.981 110.499 9.223 165.18 1.389-.006.004-.011.009-.016.014-12.377 10.494-25.028 20.577-37.938 30.236-.462.345-.922.695-1.384 1.04-2.755 2.052-5.526 4.077-8.304 6.088-.763.552-1.525 1.106-2.29 1.655-2.675 1.922-5.362 3.824-8.059 5.709-.85.594-1.702 1.183-2.554 1.773-2.698 1.869-5.403 3.724-8.124 5.555-.757.51-1.519 1.011-2.278 1.518-2.861 1.911-5.729 3.812-8.614 5.68-.143.092-.286.181-.428.274-9.557 6.179-19.251 12.113-29.067 17.814-.863.501-1.722 1.012-2.587 1.51-2.555 1.469-5.125 2.909-7.698 4.344-1.279.714-2.556 1.432-3.839 2.138-2.436 1.34-4.882 2.659-7.333 3.969-1.429.763-2.859 1.522-4.293 2.275-2.394 1.257-4.794 2.503-7.202 3.731-1.511.77-3.027 1.528-4.543 2.287-2.373 1.188-4.747 2.373-7.134 3.532-1.562.759-3.134 1.496-4.701 2.243-2.382 1.135-4.761 2.275-7.156 3.381-1.409.65-2.83 1.274-4.243 1.914-4.459 2.02-8.941 3.988-13.446 5.907-1.875.799-3.745 1.611-5.628 2.393-2.107.874-4.228 1.717-6.345 2.569-2.005.807-4.008 1.619-6.023 2.406-2.081.813-4.172 1.605-6.262 2.397-2.085.79-4.173 1.574-6.267 2.343-2.05.753-4.106 1.493-6.166 2.224-2.181.774-4.37 1.535-6.561 2.286-1.994.684-3.989 1.365-5.992 2.03-2.341.776-4.691 1.528-7.042 2.277-1.881.599-3.758 1.207-5.646 1.789-2.768.853-5.551 1.671-8.335 2.486-1.488.435-2.968.891-4.46 1.316-4.205 1.198-8.428 2.352-12.668 3.462-1.415.371-2.84.713-4.259 1.074-2.944.749-5.89 1.493-8.851 2.199-1.739.415-3.487.806-5.232 1.206-2.674.614-5.351 1.22-8.038 1.799-1.822.393-3.651.77-5.479 1.146-2.657.547-5.318 1.079-7.987 1.592-1.825.351-3.651.696-5.482 1.031-2.734.5-5.478.975-8.226 1.438-1.764.298-3.526.601-5.295.883-3.006.48-6.025.925-9.046 1.361-1.51.219-3.013.452-4.527.66-4.484.614-8.984 1.188-13.504 1.705-.05.006-.099.013-.149.019-7.527.86-15.069 1.565-22.618 2.196-1.163.097-2.324.203-3.488.295-7.377.582-14.763 1.063-22.156 1.447-.984.051-1.969.097-2.954.146-7.768.378-15.544.653-23.323.844-3.958.097-7.921.113-11.881.164-3.784.05-7.566.132-11.351.141-.505.002-1.011-.01-1.517-.01-22.427-13.846-48.087-22.696-70.746-36.198-26.606-15.853-50.488-35.413-69.928-59.644-20.013-24.944-35.323-54.822-45.072-85.203-1.614-5.031-2.896-10.657-4.104-16.554-1.006-4.909-1.965-10.003-3.014-15.117-2.922-14.237-6.58-28.571-14.163-39.126 4.947-2.403 9.859-4.95 14.731-7.624.098-.054.196-.106.294-.16 4.782-2.632 9.52-5.389 14.211-8.26.191-.117.382-.233.574-.35 4.606-2.831 9.162-5.77 13.663-8.809.269-.181.537-.364.805-.546 4.427-3.006 8.799-6.104 13.107-9.292.323-.239.644-.481.967-.722 4.254-3.168 8.448-6.411 12.569-9.737.342-.276.679-.556 1.02-.834 4.098-3.328 8.132-6.72 12.081-10.184.31-.273.614-.55.923-.823 3.975-3.508 7.88-7.071 11.687-10.696.205-.195.402-.393.606-.588.718-.687 1.423-1.38 2.135-2.07 4.133-1.941 7.616-5.287 9.861-9.876 2.4-2.492 4.779-5.019 7.128-7.597.436-.478.857-.976 1.291-1.457 2.102-2.331 4.193-4.679 6.247-7.075.307-.359.604-.732.91-1.092 2.177-2.558 4.332-5.143 6.448-7.771.126-.157.247-.319.373-.476 11.885-14.814 22.735-30.719 32.036-47.431zm-104.729-119.668c15.891-25.395 44.921-38.615 74.508-36.717 2.245.144 4.443.306 6.581.529.865 7.58 1.435 15.192 1.58 22.838.062 3.297.053 6.599-.031 9.906-.085 3.307-.246 6.619-.485 9.935 0 .004-.001.008-.001.011-.237 3.263-.558 6.504-.928 9.73-.121 1.057-.273 2.107-.409 3.16-.279 2.172-.579 4.34-.918 6.495-.192 1.224-.401 2.444-.613 3.662-.346 1.995-.72 3.982-1.116 5.961-.248 1.236-.494 2.474-.761 3.704-.439 2.025-.919 4.036-1.41 6.043-.275 1.126-.531 2.258-.823 3.378-.771 2.964-1.589 5.912-2.469 8.836-.326 1.082-.693 2.148-1.033 3.225-.605 1.916-1.215 3.83-1.867 5.729-.495 1.442-1.023 2.873-1.545 4.305-.545 1.5-1.097 2.997-1.671 4.486-.592 1.532-1.199 3.057-1.82 4.577-.549 1.346-1.115 2.684-1.687 4.02-.682 1.592-1.366 3.184-2.08 4.761-.521 1.153-1.068 2.293-1.606 3.438-2.919 6.21-6.075 12.308-9.464 18.283-.414.731-.818 1.467-1.239 2.195-1.064 1.836-2.161 3.655-3.267 5.469-.488.801-.977 1.603-1.474 2.4-1.129 1.81-2.277 3.609-3.446 5.394-.474.723-.956 1.44-1.436 2.159-1.245 1.864-2.499 3.723-3.787 5.56-.041.058-.084.115-.125.174-35.548-36.915-66.834-83.023-35.158-133.646zm-199.729 229.478c14.359-22.29 34.69-38.706 59.678-47.762 42.073-15.248 86.424-9.305 127.401 5.677-.114.103-.223.212-.337.315-4.348 3.917-8.796 7.726-13.334 11.422-2.269 1.848-4.561 3.668-6.873 5.458-4.625 3.582-9.334 7.05-14.117 10.399-7.173 5.024-14.514 9.781-21.983 14.257-20.207 12.11-40.931 23.293-62.147 33.468-12.729 6.104-25.635 11.846-38.713 17.205-11.317 4.638-22.82 8.811-34.331 12.952-3.334 1.199-6.668 2.398-9.999 3.603-.464-23.702 1.254-46.036 14.755-66.994zm-301.011 13.598c7.626-24.584 22.263-52.381 48.896-60.027 39.572-11.359 88.642 18.962 116.752 44.379 15.082 13.638 28.982 28.463 40.083 45.56 8.596 13.24 15.528 29.148 25.261 41.97-33.343 5.038-56.997 36.886-62.897 69.453-6.148 1.191-12.36 2.621-19.041 3.449-24.508 3.036-49.317 1.306-73.045-5.598-19.156-5.573-36.815-14.262-54.123-24.033-4.404-2.486-9.011-4.582-13.616-6.649.414-1.755.618-3.624.466-5.652-.99-13.171-7.168-24.862-10.319-37.65-5.312-21.565-5.015-43.933 1.583-65.202zm-85.34 243.799c5.717-53.761 48.185-83.538 80.813-120.791 3.731 5.459 8.028 10.548 13.932 15.508 16.906 14.199 37.196 24.52 58.22 31.076 26.077 8.132 54.259 11.096 81.427 8.155 6.373-.69 12.99-1.377 19.442-2.588 2.964 15.105 9.46 29.428 18.806 41.775 6.685 8.831 17.871 21.304 30.106 27.675-31.875 29.108-59.02 63.216-97.18 85.154-42.019 24.155-97.411 35.237-142.774 13.446-37.928-18.222-67.441-55.686-62.792-99.41z"/><path d="m913.944 711.89c33.7 1.333 64.791-25.716 70.155-58.626 5.442-33.383-14.583-65.569-44.934-76.908-28.715-10.727-62.487-1.234-80.018 22.759-16.821 23.022-11.493 49.543-10.167 55.302 6.191 26.892 29.903 56.086 64.964 57.473z"/><path d="m1558.293 712.153c28.933-4.527 57.019-27.091 62.351-59.238.476-2.873.839-5.794.935-8.815.452-14.175-3.562-26.989-10.302-37.796-11.059-17.731-29.478-30.042-47.707-33.979-3.273-.707-6.432-1.098-9.476-1.291-16.331-1.036-28.932 4.353-32.895 6.122-4.406 1.966-8.854 4.507-13.177 7.534-22.33 15.638-41.261 44.463-33.045 76.504 9.366 36.532 48.668 56.381 83.316 50.959z"/></svg>