<svg enable-background="new 0 0 33.192 33.192" viewBox="0 0 33.192 33.192" xmlns="http://www.w3.org/2000/svg"><path d="m31.802 32.153c-4.046-1.609-7.638-5.072-8.233-9.551-.033-.249.164-.59.42-.757.154-.101.309-.201.467-.304.811-.504 1.568-1.19 2.342-1.829.727-.726 1.473-1.425 2.102-2.254 2.627-3.467 4.531-8.01 4.268-12.455-.061-1.026-.236-2.047-.546-3.048-.058-.209-.109-.391-.152-.543-.084-.3-.243-.31-.356-.024-.057.145-.125.319-.205.519-.115.324-.293.706-.53 1.125-1.435 2.524-5.435 7.506-8.929 6.581-.846-.224-1.383-1.532-1.9-2.181-1.523-1.913-3.406-3.574-5.515-4.816-3.738-2.201-8.871-3.36-13.118-2.049-.209.058-.391.109-.543.152-.343.096-.542.151-.542.151s.377.149 1.037.41c.324.117.706.294 1.125.531 1.831 1.04 3.429 2.304 4.657 4.042 1.04 1.473 3.147 4.526 1.043 5.833-4.992 3.101-8.935 9.485-8.682 15.496.015.359.03.705.044 1.038.012.651.112 1.243.198 1.755.069.51.165.943.275 1.297.058.209.109.391.152.543.084.301.243.311.356.024.057-.146.126-.319.205-.519.117-.324.294-.707.532-1.125.221-.42.461-.881.804-1.344 1.118-1.51 2.474-2.874 4.093-3.844.855-.514 3.88-2.198 4.675-.979 3.096 4.75 7.824 8.033 13.441 8.955.422.069.832.123 1.241.133.384.021.757.041 1.117.061.359-.016.705-.029 1.039-.044.65-.013 1.242-.112 1.754-.198.51-.068.943-.165 1.297-.275.209-.058.392-.108.543-.151.297-.084.308-.242.024-.356zm-15.23-12.288c-1.739 0-3.147-1.371-3.234-3.088-.003-.055-.016-.108-.016-.164 0-1.796 1.456-3.251 3.25-3.251 1.74 0 3.148 1.37 3.236 3.088.002.055.016.108.016.164 0 1.796-1.455 3.251-3.252 3.251z" fill="#030104"/></svg>